<?xml version="1.0" encoding="utf-8"?>
<!-- Generator: Adobe Illustrator 27.2.0, SVG Export Plug-In . SVG Version: 6.00 Build 0)  -->
<svg version="1.1" id="Layer_1" xmlns="http://www.w3.org/2000/svg" xmlns:xlink="http://www.w3.org/1999/xlink" x="0px" y="0px"
	 viewBox="0 0 170 226" style="enable-background:new 0 0 170 226;" xml:space="preserve">
<style type="text/css">
	.st0{clip-path:url(#SVGID_00000182498509258240642220000010044764776054733229_);}
	.st1{fill:#FFFFFF;}
	.st2{fill:none;stroke:#000000;stroke-linecap:round;stroke-miterlimit:10;}
	.st3{fill:none;stroke:#000000;stroke-miterlimit:10;}
	.st4{display:none;fill:#FFFFFF;stroke:#000000;stroke-miterlimit:10;}
	.st5{display:none;}
	.st6{display:inline;}
	.st7{display:inline;clip-path:url(#SVGID_00000086673704136304185980000014034425522640632743_);}
</style>
<g>
	<defs>
		<path id="SVGID_1_" d="M83,10.7C71.4,26.8,13,29.9,13,59v108c0,29.1,61.3,32.2,74,48.3c11.6-16.1,70-19.2,70-48.3V59
			C157,29.9,95.7,26.8,83,10.7z"/>
	</defs>
	<clipPath id="SVGID_00000073706048513823344860000001784498075036013498_">
		<use xlink:href="#SVGID_1_"  style="overflow:visible;"/>
	</clipPath>
	<g style="clip-path:url(#SVGID_00000073706048513823344860000001784498075036013498_);">
		<g>
			<rect x="13" y="17" class="st1" width="144" height="192"/>
		</g>
		<g transform="translate(72,96) rotate(349.0839)">
			<path class="st1" d="M9.5,19.2l141.3,27.6l0-55.2L9.5,19.2z"/>
			<path class="st2" d="M9.5,19.2l141.3,27.6l0-55.2L9.5,19.2z"/>
		</g>
		<g transform="translate(72,96) rotate(208.8318)">
			<path class="st1" d="M-19.6-8.6l141.8,24.8l0-49.7L-19.6-8.6z"/>
			<path class="st2" d="M-19.6-8.6l141.8,24.8l0-49.7L-19.6-8.6z"/>
		</g>
		<g transform="translate(72,96) rotate(176.707)">
			<path class="st1" d="M-12-17.7L129.8,7.2v-49.8L-12-17.7z"/>
			<path class="st2" d="M-12-17.7L129.8,7.2v-49.8L-12-17.7z"/>
		</g>
		<g transform="translate(72,96) rotate(154.3612)">
			<path class="st1" d="M-4.4-21L138.8-5.5l0-31L-4.4-21z"/>
			<path class="st2" d="M-4.4-21L138.8-5.5l0-31L-4.4-21z"/>
		</g>
		<g transform="translate(72,96) rotate(265.6367)">
			<path class="st1" d="M-17.9,11.7l143.2,14.7l0-29.4L-17.9,11.7z"/>
			<path class="st2" d="M-17.9,11.7l143.2,14.7l0-29.4L-17.9,11.7z"/>
		</g>
		<g transform="translate(72,96) rotate(357.0725)">
			<path class="st1" d="M12.1,17.6l142.6,19.8V-2.2L12.1,17.6z"/>
			<path class="st2" d="M12.1,17.6l142.6,19.8V-2.2L12.1,17.6z"/>
		</g>
		<g transform="translate(72,96) rotate(2.3962)">
			<path class="st1" d="M13.7,16.4L155,44l0-55.1L13.7,16.4z"/>
			<path class="st2" d="M13.7,16.4L155,44l0-55.1L13.7,16.4z"/>
		</g>
		<g transform="translate(72,96) rotate(114.6786)">
			<path class="st1" d="M10-18.9L153.3-4.2l0-29.5L10-18.9z"/>
			<path class="st2" d="M10-18.9L153.3-4.2l0-29.5L10-18.9z"/>
		</g>
		<g transform="translate(72,96) rotate(92.3679)">
			<path class="st1" d="M16.4-13.7l143.7,8.8v-17.5L16.4-13.7z"/>
			<path class="st2" d="M16.4-13.7l143.7,8.8v-17.5L16.4-13.7z"/>
		</g>
		<g transform="translate(72,96) rotate(115.6656)">
			<path class="st1" d="M9.7-19.1L151.6,5.7v-49.5L9.7-19.1z"/>
			<path class="st2" d="M9.7-19.1L151.6,5.7v-49.5L9.7-19.1z"/>
		</g>
		<g transform="translate(72,96) rotate(344.1101)">
			<path class="st1" d="M7.8,19.9l143.5,12.4l0-24.8L7.8,19.9z"/>
			<path class="st2" d="M7.8,19.9l143.5,12.4l0-24.8L7.8,19.9z"/>
		</g>
		<g transform="translate(72,96) rotate(338.2032)">
			<path class="st1" d="M5.8,20.6l142.8,18.2V2.4L5.8,20.6z"/>
			<path class="st2" d="M5.8,20.6l142.8,18.2V2.4L5.8,20.6z"/>
		</g>
		<g transform="translate(72,96) rotate(86.7041)">
			<path class="st1" d="M17.7-12l142.2,23l0-46L17.7-12z"/>
			<path class="st2" d="M17.7-12l142.2,23l0-46L17.7-12z"/>
		</g>
		<g transform="translate(72,96) rotate(300.1612)">
			<path class="st1" d="M-8.2,19.8L134,42.5V-2.9L-8.2,19.8z"/>
			<path class="st2" d="M-8.2,19.8L134,42.5V-2.9L-8.2,19.8z"/>
		</g>
		<g transform="translate(72,96) rotate(22.5231)">
			<path class="st1" d="M18.5,10.7l143.7,10v-20L18.5,10.7z"/>
			<path class="st2" d="M18.5,10.7l143.7,10v-20L18.5,10.7z"/>
		</g>
		<g transform="translate(72,96) rotate(312.3168)">
			<path class="st1" d="M-3.8,21.1l143,16.8l0-33.5L-3.8,21.1z"/>
			<path class="st2" d="M-3.8,21.1l143,16.8l0-33.5L-3.8,21.1z"/>
		</g>
		<g transform="translate(72,96) rotate(112.0026)">
			<path class="st1" d="M10.9-18.4L154.4-6.8V-30L10.9-18.4z"/>
			<path class="st2" d="M10.9-18.4L154.4-6.8V-30L10.9-18.4z"/>
		</g>
		<g transform="translate(72,96) rotate(279.9469)">
			<path class="st1" d="M-14.5,15.7L126.9,43l0-54.5L-14.5,15.7z"/>
			<path class="st2" d="M-14.5,15.7L126.9,43l0-54.5L-14.5,15.7z"/>
		</g>
		<g transform="translate(72,96) rotate(307.2479)">
			<path class="st1" d="M-5.7,20.6l141.1,28.6l0-57.2L-5.7,20.6z"/>
			<path class="st2" d="M-5.7,20.6l141.1,28.6l0-57.2L-5.7,20.6z"/>
		</g>
		<g transform="translate(72,96) rotate(264.0936)">
			<path class="st1" d="M-18.2,11.2l142.1,23.2l0-46.3L-18.2,11.2z"/>
			<path class="st2" d="M-18.2,11.2l142.1,23.2l0-46.3L-18.2,11.2z"/>
		</g>
		<g transform="translate(72,96) rotate(54.1638)">
			<path class="st1" d="M21.4-0.6L163,25.3v-51.8L21.4-0.6z"/>
			<path class="st2" d="M21.4-0.6L163,25.3v-51.8L21.4-0.6z"/>
		</g>
		<g transform="translate(72,96) rotate(374.723)">
			<path class="st1" d="M16.9,13.1l143.5,12.6V0.6L16.9,13.1z"/>
			<path class="st2" d="M16.9,13.1l143.5,12.6V0.6L16.9,13.1z"/>
		</g>
		<g transform="translate(72,96) rotate(160.3276)">
			<path class="st1" d="M-6.5-20.4l143.4,13l0-26L-6.5-20.4z"/>
			<path class="st2" d="M-6.5-20.4l143.4,13l0-26L-6.5-20.4z"/>
		</g>
		<g transform="translate(72,96) rotate(278.1541)">
			<path class="st1" d="M-15,15.3l142.1,23.4l0-46.9L-15,15.3z"/>
			<path class="st2" d="M-15,15.3l142.1,23.4l0-46.9L-15,15.3z"/>
		</g>
		<g transform="translate(72,96) rotate(336.4944)">
			<path class="st1" d="M5.1,20.8l143,16.9V3.9L5.1,20.8z"/>
			<path class="st2" d="M5.1,20.8l143,16.9V3.9L5.1,20.8z"/>
		</g>
		<g transform="translate(72,96) rotate(-31.579)">
			<path class="st1" d="M2.2,21.3l143.3,13.9V7.4L2.2,21.3z"/>
			<path class="st2" d="M2.2,21.3l143.3,13.9V7.4L2.2,21.3z"/>
		</g>
		<g transform="translate(72,96) rotate(-7.2807)">
			<path class="st1" d="M10.7,18.5l141.5,26.6l0-53.2L10.7,18.5z"/>
			<path class="st2" d="M10.7,18.5l141.5,26.6l0-53.2L10.7,18.5z"/>
		</g>
		<g transform="translate(72,96) rotate(271.2948)">
			<path class="st1" d="M-16.7,13.4l143.1,15.8l0-31.6L-16.7,13.4z"/>
			<path class="st2" d="M-16.7,13.4l143.1,15.8l0-31.6L-16.7,13.4z"/>
		</g>
		<g transform="translate(72,96) rotate(173.1989)">
			<path class="st1" d="M-10.9-18.4L131.8,1v-38.9L-10.9-18.4z"/>
			<path class="st2" d="M-10.9-18.4L131.8,1v-38.9L-10.9-18.4z"/>
		</g>
		<g transform="translate(72,96) rotate(310.7489)">
			<path class="st1" d="M-4.4,20.9l143.8,7.8V13.2L-4.4,20.9z"/>
			<path class="st2" d="M-4.4,20.9l143.8,7.8V13.2L-4.4,20.9z"/>
		</g>
		<g transform="translate(72,96) rotate(236.2864)">
			<path class="st1" d="M-21.4,1.4L121,23.1l0-43.4L-21.4,1.4z"/>
			<path class="st2" d="M-21.4,1.4L121,23.1l0-43.4L-21.4,1.4z"/>
		</g>
		<g transform="translate(72,96) rotate(276.3328)">
			<path class="st1" d="M-15.5,14.8l143.2,15.1l0-30.1L-15.5,14.8z"/>
			<path class="st2" d="M-15.5,14.8l143.2,15.1l0-30.1L-15.5,14.8z"/>
		</g>
		<g>
			<circle class="st1" cx="86.6" cy="113" r="6"/>
			<circle class="st2" cx="86.6" cy="113" r="6"/>
			<circle class="st1" cx="84.4" cy="108.9" r="4.5"/>
			<circle class="st2" cx="84.4" cy="108.9" r="4.5"/>
			<circle class="st1" cx="62.6" cy="86.9" r="4"/>
			<circle class="st2" cx="62.6" cy="86.9" r="4"/>
			<circle class="st1" cx="109" cy="104.3" r="6.5"/>
			<circle class="st2" cx="109" cy="104.3" r="6.5"/>
			<circle class="st1" cx="85.2" cy="113" r="5.5"/>
			<circle class="st2" cx="85.2" cy="113" r="5.5"/>
			<circle class="st1" cx="84.8" cy="113.4" r="6.5"/>
			<circle class="st2" cx="84.8" cy="113.4" r="6.5"/>
			<circle class="st1" cx="84.3" cy="120.5" r="6"/>
			<circle class="st2" cx="84.3" cy="120.5" r="6"/>
			<circle class="st1" cx="126.1" cy="75.9" r="8"/>
			<circle class="st2" cx="126.1" cy="75.9" r="8"/>
			<circle class="st1" cx="84.2" cy="114" r="5.5"/>
			<circle class="st2" cx="84.2" cy="114" r="5.5"/>
			<circle class="st1" cx="83.2" cy="112.6" r="5"/>
			<circle class="st2" cx="83.2" cy="112.6" r="5"/>
			<circle class="st1" cx="85" cy="112.9" r="8"/>
			<circle class="st2" cx="85" cy="112.9" r="8"/>
			<circle class="st1" cx="96" cy="147.6" r="8"/>
			<circle class="st2" cx="96" cy="147.6" r="8"/>
			<circle class="st1" cx="62.6" cy="106.4" r="4.5"/>
			<circle class="st2" cx="62.6" cy="106.4" r="4.5"/>
			<circle class="st1" cx="84.7" cy="113.3" r="7"/>
			<circle class="st2" cx="84.7" cy="113.3" r="7"/>
			<circle class="st1" cx="121.7" cy="109" r="4"/>
			<circle class="st2" cx="121.7" cy="109" r="4"/>
			<circle class="st1" cx="85" cy="113" r="5"/>
			<circle class="st2" cx="85" cy="113" r="5"/>
			<circle class="st1" cx="85" cy="113" r="5.5"/>
			<circle class="st2" cx="85" cy="113" r="5.5"/>
			<circle class="st1" cx="111.4" cy="123.6" r="4.5"/>
			<circle class="st2" cx="111.4" cy="123.6" r="4.5"/>
			<circle class="st1" cx="85" cy="113" r="6.5"/>
			<circle class="st2" cx="85" cy="113" r="6.5"/>
			<circle class="st1" cx="83.3" cy="105.7" r="7.5"/>
			<circle class="st2" cx="83.3" cy="105.7" r="7.5"/>
			<circle class="st1" cx="95" cy="65.9" r="5"/>
			<circle class="st2" cx="95" cy="65.9" r="5"/>
			<circle class="st1" cx="105" cy="140.6" r="6.5"/>
			<circle class="st2" cx="105" cy="140.6" r="6.5"/>
			<circle class="st1" cx="84.8" cy="112.4" r="7.5"/>
			<circle class="st2" cx="84.8" cy="112.4" r="7.5"/>
			<circle class="st1" cx="87.4" cy="114.4" r="6.5"/>
			<circle class="st2" cx="87.4" cy="114.4" r="6.5"/>
			<circle cx="85" cy="113" r="20"/>
		</g>
	</g>
</g>
<path class="st3" d="M83,10.7C71.4,26.8,13,19.9,13,49v128c0,29.1,61.3,22.2,74,38.3c11.6-16.1,70-9.2,70-38.3V49
	C157,19.9,95.7,26.8,83,10.7z"/>
<path class="st3" d="M83,10.7C71.4,26.8,13,19.9,13,49v128c0,29.1,61.3,22.2,74,38.3c11.6-16.1,70-9.2,70-38.3V49
	C157,19.9,95.7,26.8,83,10.7z"/>
<rect x="8" y="5" class="st3" width="154" height="216"/>
<circle class="st4" cx="85" cy="113" r="20"/>
<g class="st5">
	<defs>
		<circle id="SVGID_00000088826876003862898110000017977129654159793060_" cx="85" cy="113" r="20"/>
	</defs>
	<clipPath id="SVGID_00000062903821878220061970000002402884562780276141_" class="st6">
		<use xlink:href="#SVGID_00000088826876003862898110000017977129654159793060_"  style="overflow:visible;"/>
	</clipPath>
	<g style="display:inline;clip-path:url(#SVGID_00000062903821878220061970000002402884562780276141_);">
		<line class="st3" x1="112.3" y1="172.3" x2="57.7" y2="117.7"/>
		<line class="st3" x1="112.3" y1="168.3" x2="57.7" y2="113.7"/>
		<line class="st3" x1="112.3" y1="164.3" x2="57.7" y2="109.7"/>
		<line class="st3" x1="112.3" y1="160.3" x2="57.7" y2="105.7"/>
		<line class="st3" x1="112.3" y1="156.3" x2="57.7" y2="101.7"/>
		<line class="st3" x1="112.3" y1="152.3" x2="57.7" y2="97.7"/>
		<line class="st3" x1="112.3" y1="149.3" x2="57.7" y2="94.7"/>
		<line class="st3" x1="112.3" y1="146.3" x2="57.7" y2="91.7"/>
		<line class="st3" x1="112.3" y1="143.3" x2="57.7" y2="88.7"/>
		<line class="st3" x1="112.3" y1="140.3" x2="57.7" y2="85.7"/>
		<line class="st3" x1="112.3" y1="137.3" x2="57.7" y2="82.7"/>
		<line class="st3" x1="112.3" y1="134.3" x2="57.7" y2="79.7"/>
		<line class="st3" x1="112.3" y1="131.3" x2="57.7" y2="76.7"/>
		<line class="st3" x1="112.3" y1="128.3" x2="57.7" y2="73.7"/>
		<line class="st3" x1="112.3" y1="125.3" x2="57.7" y2="70.7"/>
		<line class="st3" x1="112.3" y1="122.3" x2="57.7" y2="67.7"/>
		<line class="st3" x1="112.3" y1="119.3" x2="57.7" y2="64.7"/>
	</g>
</g>
</svg>
