<?xml version="1.0" encoding="utf-8" ?>
<svg xmlns="http://www.w3.org/2000/svg" xmlns:cc="http://creativecommons.org/ns" xmlns:dc="http://purl.org/dc/elements/1.1/" xmlns:ev="http://www.w3.org/2001/xml-events" xmlns:inkscape="http://www.inkscape.org/namespaces/inkscape" xmlns:rdf="http://www.w3.org/1999/02/22-rdf-syntax-ns" xmlns:sodipodi="http://sodipodi.sourceforge.net/DTD/sodipodi-0.dtd" xmlns:xlink="http://www.w3.org/1999/xlink" baseProfile="tiny" height="5.08cm" version="1.2" viewBox="0 0 144.0 192.0" width="3.81cm">
  <metadata>
    <rdf:RDF>
      <cc:Work>
        <dc:format>image/svg+xml</dc:format>
        <dc:source>vpype read radials-1a.svg occult -i linesort write radials-1a-o.svg
</dc:source>
        <dc:date>2024-11-09T22:27:06.786191</dc:date>
      </cc:Work>
    </rdf:RDF>
  </metadata>
  <defs/>
  <g fill="none" id="layer1" inkscape:groupmode="layer" inkscape:label="1" stroke="#000000" style="display:inline">
    <polygon points="0.0,0.0 144.0,0.0 144.0,192.0 0.0,192.0"/>
    <line x1="0.0" x2="59.6648" y1="4.1117" y2="80.2575"/>
    <line x1="61.8605" x2="15.5347" y1="78.7612" y2="0.0"/>
    <line x1="31.4174" x2="64.2127" y1="0.0" y2="77.5788"/>
    <line x1="65.0351" x2="36.3348" y1="77.2526" y2="0.0"/>
    <line x1="47.17" x2="66.9921" y1="0.0" y2="76.638"/>
    <line x1="70.4032" x2="69.1963" y1="76.0645" y2="60.9961"/>
    <line x1="70.2851" x2="71.0136" y1="61.2721" y2="76.0252"/>
    <line x1="71.2155" x2="70.639" y1="76.0156" y2="61.3278"/>
    <polygon points="79.7,53.4 79.6909,53.7807 79.6638,54.1604 79.6186,54.5385 79.5554,54.914 79.4745,55.2861 79.3759,55.6539 79.26,56.0165 79.1269,56.3733 78.9771,56.7233 78.8107,57.0658 78.6282,57.4 78.43,57.7251 78.2166,58.0405 77.9884,58.3453 77.746,58.6389 77.4899,58.9206 77.2206,59.1899 76.9389,59.446 76.6453,59.6884 76.3405,59.9166 76.0251,60.13 75.7,60.3282 75.3658,60.5107 75.0233,60.6771 74.6733,60.8269 74.3165,60.96 73.9539,61.0759 73.5861,61.1745 73.214,61.2554 72.8385,61.3186 72.4604,61.3638 72.0807,61.3909 71.7,61.4 71.3193,61.3909 70.9396,61.3638 70.5615,61.3186 70.186,61.2554 69.8139,61.1745 69.4461,61.0759 69.0835,60.96 68.7267,60.8269 68.3767,60.6771 68.0342,60.5107 67.7,60.3282 67.3749,60.13 67.0595,59.9166 66.7547,59.6884 66.4611,59.446 66.1794,59.1899 65.9101,58.9206 65.654,58.6389 65.4116,58.3453 65.1834,58.0405 64.97,57.7251 64.7718,57.4 64.5893,57.0658 64.4229,56.7233 64.2731,56.3733 64.14,56.0165 64.0241,55.6539 63.9255,55.2861 63.8446,54.914 63.7814,54.5385 63.7362,54.1604 63.7091,53.7807 63.7,53.4 63.7091,53.0193 63.7362,52.6396 63.7814,52.2615 63.8446,51.886 63.9255,51.5139 64.0241,51.1461 64.14,50.7835 64.2731,50.4267 64.4229,50.0767 64.5893,49.7342 64.7718,49.4 64.97,49.0749 65.1834,48.7595 65.4116,48.4547 65.654,48.1611 65.9101,47.8794 66.1794,47.6101 66.4611,47.354 66.7547,47.1116 67.0595,46.8834 67.3749,46.67 67.7,46.4718 68.0342,46.2893 68.3767,46.1229 68.7267,45.9731 69.0835,45.84 69.4461,45.7241 69.8139,45.6255 70.186,45.5446 70.5615,45.4814 70.9396,45.4362 71.3193,45.4091 71.7,45.4 72.0807,45.4091 72.4604,45.4362 72.8385,45.4814 73.214,45.5446 73.5861,45.6255 73.9539,45.7241 74.3165,45.84 74.6733,45.9731 75.0233,46.1229 75.3658,46.2893 75.7,46.4718 76.0251,46.67 76.3405,46.8834 76.6453,47.1116 76.9389,47.354 77.2206,47.6101 77.4899,47.8794 77.746,48.1611 77.9884,48.4547 78.2166,48.7595 78.43,49.0749 78.6282,49.4 78.8107,49.7342 78.9771,50.0767 79.1269,50.4267 79.26,50.7835 79.3759,51.1461 79.4745,51.5139 79.5554,51.886 79.6186,52.2615 79.6638,52.6396 79.6909,53.0193"/>
    <line x1="86.9894" x2="106.1241" y1="53.8309" y2="0.0"/>
    <line x1="111.5887" x2="89.0147" y1="0.0" y2="54.7405"/>
    <polyline points="89.4649,55.1022 89.4017,55.0434 89.096,54.797 88.7735,54.5731 88.4359,54.3728 88.0848,54.197 87.7221,54.0468 87.3495,53.9228 86.9691,53.8257 86.5827,53.756 86.1924,53.714 85.8,53.7 85.4076,53.714 85.0173,53.756 84.6309,53.8257 84.2505,53.9228 83.8779,54.0468 83.5152,54.197 83.1641,54.3728 82.8265,54.5731 82.504,54.797 82.1983,55.0434 81.9109,55.3109 81.6434,55.5983 81.397,55.904 81.1731,56.2265 80.9728,56.5641 80.797,56.9152 80.6468,57.2779 80.5228,57.6505 80.4257,58.0309 80.356,58.4173 80.314,58.8076 80.3,59.2 80.314,59.5924 80.356,59.9827 80.4257,60.3691 80.5228,60.7495 80.6468,61.1221 80.797,61.4848 80.9728,61.8359 81.1731,62.1735 81.397,62.496 81.6434,62.8017 81.9109,63.0891 82.1983,63.3566 82.504,63.603 82.8265,63.8269 83.1641,64.0272 83.5152,64.203 83.8779,64.3532 84.2505,64.4772 84.6309,64.5743 85.0173,64.644 85.4076,64.686 85.8,64.7 86.0715,64.6903"/>
    <line x1="84.9367" x2="79.6245" y1="64.6295" y2="77.5112"/>
    <line x1="78.6985" x2="83.3347" y1="77.1553" y2="64.1126"/>
    <line x1="87.035" x2="80.9869" y1="66.1099" y2="78.1338"/>
    <line x1="82.9596" x2="90.2242" y1="79.2712" y2="68.1825"/>
    <line x1="90.9378" x2="83.305" y1="68.3637" y2="79.5024"/>
    <line x1="84.0137" x2="92.6696" y1="80.0105" y2="68.49"/>
    <polygon points="99.3,61.5 99.2897,61.879 99.259,62.2568 99.2078,62.6325 99.1363,63.0048 99.0448,63.3727 98.9336,63.7351 98.8028,64.091 98.653,64.4392 98.4846,64.7789 98.298,65.1089 98.0938,65.4283 97.8727,65.7362 97.6351,66.0317 97.382,66.3139 97.1139,66.582 96.8317,66.8351 96.5362,67.0727 96.2283,67.2938 95.9089,67.498 95.5789,67.6846 95.2392,67.853 94.891,68.0028 94.5351,68.1336 94.1727,68.2448 93.8048,68.3363 93.4325,68.4078 93.0568,68.459 92.679,68.4897 92.3,68.5 91.921,68.4897 91.5432,68.459 91.1675,68.4078 90.7952,68.3363 90.4273,68.2448 90.0649,68.1336 89.709,68.0028 89.3608,67.853 89.0211,67.6846 88.6911,67.498 88.3717,67.2938 88.0638,67.0727 87.7683,66.8351 87.4861,66.582 87.218,66.3139 86.9649,66.0317 86.7273,65.7362 86.5062,65.4283 86.302,65.1089 86.1154,64.7789 85.947,64.4392 85.7972,64.091 85.6664,63.7351 85.5552,63.3727 85.4637,63.0048 85.3922,62.6325 85.341,62.2568 85.3103,61.879 85.3,61.5 85.3103,61.121 85.341,60.7432 85.3922,60.3675 85.4637,59.9952 85.5552,59.6273 85.6664,59.2649 85.7972,58.909 85.947,58.5608 86.1154,58.2211 86.302,57.8911 86.5062,57.5717 86.7273,57.2638 86.9649,56.9683 87.218,56.6861 87.4861,56.418 87.7683,56.1649 88.0638,55.9273 88.3717,55.7062 88.6911,55.502 89.0211,55.3154 89.3608,55.147 89.709,54.9972 90.0649,54.8664 90.4273,54.7552 90.7952,54.6637 91.1675,54.5922 91.5432,54.541 91.921,54.5103 92.3,54.5 92.679,54.5103 93.0568,54.541 93.4325,54.5922 93.8048,54.6637 94.1727,54.7552 94.5351,54.8664 94.891,54.9972 95.2392,55.147 95.5789,55.3154 95.9089,55.502 96.2283,55.7062 96.5362,55.9273 96.8317,56.1649 97.1139,56.418 97.382,56.6861 97.6351,56.9683 97.8727,57.2638 98.0938,57.5717 98.298,57.8911 98.4846,58.2211 98.653,58.5608 98.8028,58.909 98.9336,59.2649 99.0448,59.6273 99.1363,59.9952 99.2078,60.3675 99.259,60.7432 99.2897,61.121"/>
    <line x1="99.1154" x2="144.0" y1="59.911" y2="0.1722"/>
    <line x1="137.784" x2="98.2092" y1="0.0" y2="57.7523"/>
    <line x1="97.5981" x2="134.893" y1="56.927" y2="-0.0"/>
    <line x1="120.2888" x2="92.8622" y1="0.0" y2="54.5252"/>
    <line x1="70.0209" x2="68.2317" y1="45.5805" y2="0.0"/>
    <line x1="67.2594" x2="69.5164" y1="-0.0" y2="45.7052"/>
    <line x1="68.019" x2="64.3107" y1="46.2976" y2="0.0"/>
    <line x1="90.2689" x2="75.7389" y1="0.0" y2="76.3528"/>
    <line x1="85.775" x2="144.0" y1="81.5006" y2="20.2137"/>
    <line x1="144.0" x2="86.1591" y1="24.1787" y2="81.8761"/>
    <line x1="87.7143" x2="144.0" y1="83.6293" y2="39.3196"/>
    <line x1="144.0" x2="89.3251" y1="54.4822" y2="86.0097"/>
    <line x1="89.7183" x2="144.0" y1="86.725" y2="58.3101"/>
    <line x1="144.0" x2="93.4472" y1="71.5998" y2="88.7317"/>
    <line x1="95.6181" x2="144.0" y1="90.3076" y2="78.6466"/>
    <line x1="144.0" x2="96.6525" y1="83.1839" y2="91.6118"/>
    <line x1="96.7751" x2="144.0" y1="91.8128" y2="83.8314"/>
    <line x1="144.0" x2="137.5745" y1="93.8497" y2="94.0416"/>
    <polygon points="137.7,95.3 137.689,95.6779 137.656,96.0546 137.6013,96.4287 137.5248,96.799 137.4269,97.1642 137.308,97.5231 137.1684,97.8745 137.0086,98.2172 136.8292,98.55 136.6307,98.8718 136.4138,99.1815 136.1793,99.4781 135.9279,99.7606 135.6606,100.0279 135.3781,100.2793 135.0815,100.5138 134.7718,100.7307 134.45,100.9292 134.1172,101.1086 133.7745,101.2684 133.4231,101.408 133.0642,101.5269 132.699,101.6248 132.3287,101.7013 131.9546,101.756 131.5779,101.789 131.2,101.8 130.8221,101.789 130.4454,101.756 130.0713,101.7013 129.701,101.6248 129.3358,101.5269 128.9769,101.408 128.6255,101.2684 128.2828,101.1086 127.95,100.9292 127.6282,100.7307 127.3185,100.5138 127.0219,100.2793 126.7394,100.0279 126.4721,99.7606 126.2207,99.4781 125.9862,99.1815 125.7693,98.8718 125.5708,98.55 125.3914,98.2172 125.2316,97.8745 125.092,97.5231 124.9731,97.1642 124.8752,96.799 124.7987,96.4287 124.744,96.0546 124.711,95.6779 124.7,95.3 124.711,94.9221 124.744,94.5454 124.7987,94.1713 124.8752,93.801 124.9731,93.4358 125.092,93.0769 125.2316,92.7255 125.3914,92.3828 125.5708,92.05 125.7693,91.7282 125.9862,91.4185 126.2207,91.1219 126.4721,90.8394 126.7394,90.5721 127.0219,90.3207 127.3185,90.0862 127.6282,89.8693 127.95,89.6708 128.2828,89.4914 128.6255,89.3316 128.9769,89.192 129.3358,89.0731 129.701,88.9752 130.0713,88.8987 130.4454,88.844 130.8221,88.811 131.2,88.8 131.5779,88.811 131.9546,88.844 132.3287,88.8987 132.699,88.9752 133.0642,89.0731 133.4231,89.192 133.7745,89.3316 134.1172,89.4914 134.45,89.6708 134.7718,89.8693 135.0815,90.0862 135.3781,90.3207 135.6606,90.5721 135.9279,90.8394 136.1793,91.1219 136.4138,91.4185 136.6307,91.7282 136.8292,92.05 137.0086,92.3828 137.1684,92.7255 137.308,93.0769 137.4269,93.4358 137.5248,93.801 137.6013,94.1713 137.656,94.5454 137.689,94.9221"/>
    <line x1="137.5829" x2="144.0" y1="96.5177" y2="96.5683"/>
    <line x1="144.0" x2="135.9487" y1="100.2077" y2="99.7372"/>
    <line x1="132.4586" x2="144.0" y1="101.6744" y2="102.7577"/>
    <line x1="144.0" x2="97.4142" y1="103.4771" y2="98.6392"/>
    <line x1="97.4994" x2="128.778" y1="98.3933" y2="101.329"/>
    <line x1="125.9668" x2="97.7358" y1="99.1539" y2="97.504"/>
    <line x1="97.8928" x2="124.797" y1="96.2044" y2="96.4168"/>
    <line x1="124.7617" x2="97.8701" y1="94.4243" y2="95.2274"/>
    <polyline points="97.9,95.9 97.8909,96.2807 97.8638,96.6604 97.8186,97.0385 97.7554,97.414 97.6745,97.7861 97.5759,98.1539 97.46,98.5165 97.3269,98.8733 97.1771,99.2233 97.0107,99.5658 96.8282,99.9 96.63,100.2251 96.4166,100.5405 96.1884,100.8453 95.946,101.1389 95.6899,101.4206 95.4206,101.6899 95.1389,101.946 94.8453,102.1884 94.5405,102.4166 94.2251,102.63 93.9,102.8282 93.5658,103.0107 93.2233,103.1771 92.8733,103.3269 92.5165,103.46 92.1539,103.5759 91.7861,103.6745 91.414,103.7554 91.0385,103.8186 90.6604,103.8638 90.3796,103.8839"/>
    <line x1="90.1443" x2="144.0" y1="104.4128" y2="129.3836"/>
    <line x1="144.0" x2="88.7785" y1="142.7024" y2="106.8833"/>
    <line x1="87.4679" x2="144.0" y1="108.6774" y2="155.0106"/>
    <line x1="144.0" x2="87.2816" y1="156.7896" y2="108.9022"/>
    <line x1="82.1178" x2="128.3017" y1="113.2519" y2="192.0"/>
    <line x1="116.9082" x2="80.4743" y1="192.0" y2="114.1155"/>
    <polyline points="77.7227,115.1629 77.8532,115.4779 77.9772,115.8505 78.0743,116.2309 78.144,116.6173 78.186,117.0076 78.2,117.4"/>
    <polyline points="78.2,117.4 78.186,117.7924 78.144,118.1827 78.0743,118.5691 77.9772,118.9495 77.8532,119.3221 77.703,119.6848 77.5272,120.0359 77.3269,120.3735 77.103,120.696 76.8566,121.0017 76.5891,121.2891 76.3017,121.5566 75.996,121.803 75.6735,122.0269 75.3359,122.2272 74.9848,122.403 74.6221,122.5532 74.2495,122.6772 73.8691,122.7743 73.4827,122.844 73.0924,122.886 72.7,122.9 72.3076,122.886 71.9173,122.844 71.5309,122.7743 71.1505,122.6772 70.7779,122.5532 70.4152,122.403 70.0641,122.2272 69.7265,122.0269 69.404,121.803 69.0983,121.5566 68.8109,121.2891 68.5434,121.0017 68.297,120.696 68.0731,120.3735 67.8728,120.0359 67.697,119.6848 67.5468,119.3221 67.4228,118.9495 67.3257,118.5691 67.256,118.1827 67.214,117.7924 67.2,117.4 67.214,117.0076 67.256,116.6173 67.3257,116.2309 67.4228,115.8505 67.5407,115.4961"/>
    <line x1="66.0761" x2="42.2287" y1="115.1022" y2="192.0"/>
    <line x1="40.1957" x2="65.7104" y1="192.0" y2="114.985"/>
    <line x1="64.1984" x2="31.3295" y1="114.4151" y2="192.0"/>
    <line x1="25.5093" x2="63.2831" y1="192.0" y2="113.9999"/>
    <line x1="61.8295" x2="30.0925" y1="113.2203" y2="166.9567"/>
    <line x1="29.5292" x2="61.7235" y1="166.9056" y2="113.1568"/>
    <line x1="60.86" x2="7.6131" y1="112.6095" y2="192.0"/>
    <line x1="1.6863" x2="60.1827" y1="192.0" y2="112.1343"/>
    <line x1="58.8746" x2="0.0" y1="111.0899" y2="178.7764"/>
    <line x1="-0.0" x2="57.5159" y1="164.5542" y2="109.7909"/>
    <line x1="57.2178" x2="0.0" y1="109.4715" y2="161.616"/>
    <line x1="0.0" x2="39.4381" y1="147.6317" y2="119.3504"/>
    <line x1="39.2744" x2="-0.0" y1="119.2944" y2="147.2502"/>
    <line x1="0.0" x2="34.2122" y1="127.6555" y2="112.6138"/>
    <line x1="34.7428" x2="0.0" y1="109.405" y2="121.9054"/>
    <line x1="-0.0" x2="34.871" y1="121.4126" y2="109.1048"/>
    <line x1="45.074" x2="53.1405" y1="105.5036" y2="102.6565"/>
    <line x1="53.1817" x2="45.2829" y1="102.7708" y2="105.6127"/>
    <line x1="47.0658" x2="53.6917" y1="106.9626" y2="104.0494"/>
    <line x1="55.7069" x2="49.1992" y1="107.5976" y2="112.2298"/>
    <polygon points="49.2,112.2 49.1904,112.5799 49.1615,112.9588 49.1135,113.3357 49.0465,113.7097 48.9606,114.0799 48.856,114.4452 48.7331,114.8048 48.5922,115.1577 48.4335,115.503 48.2576,115.8398 48.0648,116.1672 47.8557,116.4845 47.6308,116.7908 47.3907,117.0853 47.1359,117.3673 46.8673,117.6359 46.5853,117.8907 46.2908,118.1308 45.9845,118.3557 45.6672,118.5648 45.3398,118.7576 45.003,118.9335 44.6577,119.0922 44.3048,119.2331 43.9452,119.356 43.5799,119.4606 43.2097,119.5465 42.8357,119.6135 42.4588,119.6615 42.0799,119.6904 41.7,119.7 41.3201,119.6904 40.9412,119.6615 40.5643,119.6135 40.1903,119.5465 39.8201,119.4606 39.4548,119.356 39.0952,119.2331 38.7423,119.0922 38.397,118.9335 38.0602,118.7576 37.7328,118.5648 37.4155,118.3557 37.1092,118.1308 36.8147,117.8907 36.5327,117.6359 36.2641,117.3673 36.0093,117.0853 35.7692,116.7908 35.5443,116.4845 35.3352,116.1672 35.1424,115.8398 34.9665,115.503 34.8078,115.1577 34.6669,114.8048 34.544,114.4452 34.4394,114.0799 34.3535,113.7097 34.2865,113.3357 34.2385,112.9588 34.2096,112.5799 34.2,112.2 34.2096,111.8201 34.2385,111.4412 34.2865,111.0643 34.3535,110.6903 34.4394,110.3201 34.544,109.9548 34.6669,109.5952 34.8078,109.2423 34.9665,108.897 35.1424,108.5602 35.3352,108.2328 35.5443,107.9155 35.7692,107.6092 36.0093,107.3147 36.2641,107.0327 36.5327,106.7641 36.8147,106.5093 37.1092,106.2692 37.4155,106.0443 37.7328,105.8352 38.0602,105.6424 38.397,105.4665 38.7423,105.3078 39.0952,105.1669 39.4548,105.044 39.8201,104.9394 40.1903,104.8535 40.5643,104.7865 40.9412,104.7385 41.3201,104.7096 41.7,104.7 42.0799,104.7096 42.4588,104.7385 42.8357,104.7865 43.2097,104.8535 43.5799,104.9394 43.9452,105.044 44.3048,105.1669 44.6577,105.3078 45.003,105.4665 45.3398,105.6424 45.6672,105.8352 45.9845,106.0443 46.2908,106.2692 46.5853,106.5093 46.8673,106.7641 47.1359,107.0327 47.3907,107.3147 47.6308,107.6092 47.8557,107.9155 48.0648,108.2328 48.2576,108.5602 48.4335,108.897 48.5922,109.2423 48.7331,109.5952 48.856,109.9548 48.9606,110.3201 49.0465,110.6903 49.1135,111.0643 49.1615,111.4412 49.1904,111.8201"/>
    <line x1="49.1961" x2="55.7474" y1="112.3528" y2="107.6549"/>
    <line x1="52.0969" x2="0.0" y1="97.9611" y2="103.0944"/>
    <line x1="0.0" x2="52.0509" y1="101.1141" y2="97.417"/>
    <line x1="53.7977" x2="0.0" y1="87.7149" y2="63.2278"/>
    <line x1="0.0" x2="54.1015" y1="60.1081" y2="87.0776"/>
    <line x1="54.6845" x2="0.0" y1="85.9929" y2="54.3891"/>
    <line x1="-0.0" x2="21.0144" y1="37.1617" y2="54.3346"/>
    <line x1="21.9634" x2="0.0" y1="51.7503" y2="32.327"/>
    <polygon points="31.0,54.7 30.9846,55.0923 30.9384,55.4822 30.8618,55.8672 30.7553,56.2451 30.6194,56.6134 30.455,56.97 30.2632,57.3125 30.0451,57.6389 29.802,57.9472 29.5355,58.2355 29.2472,58.502 28.9389,58.7451 28.6125,58.9632 28.27,59.155 27.9134,59.3194 27.5451,59.4553 27.1672,59.5618 26.7822,59.6384 26.3923,59.6846 26.0,59.7 25.6077,59.6846 25.2178,59.6384 24.8328,59.5618 24.4549,59.4553 24.0866,59.3194 23.73,59.155 23.3875,58.9632 23.0611,58.7451 22.7528,58.502 22.4645,58.2355 22.198,57.9472 21.9549,57.6389 21.7368,57.3125 21.545,56.97 21.3806,56.6134 21.2447,56.2451 21.1382,55.8672 21.0616,55.4822 21.0154,55.0923 21.0,54.7 21.0154,54.3077 21.0616,53.9178 21.1382,53.5328 21.2447,53.1549 21.3806,52.7866 21.545,52.43 21.7368,52.0875 21.9549,51.7611 22.198,51.4528 22.4645,51.1645 22.7528,50.898 23.0611,50.6549 23.3875,50.4368 23.73,50.245 24.0866,50.0806 24.4549,49.9447 24.8328,49.8382 25.2178,49.7616 25.6077,49.7154 26.0,49.7 26.3923,49.7154 26.7822,49.7616 27.1672,49.8382 27.5451,49.9447 27.9134,50.0806 28.27,50.245 28.6125,50.4368 28.9389,50.6549 29.2472,50.898 29.5355,51.1645 29.802,51.4528 30.0451,51.7611 30.2632,52.0875 30.455,52.43 30.6194,52.7866 30.7553,53.1549 30.8618,53.5328 30.9384,53.9178 30.9846,54.3077"/>
    <line x1="29.4188" x2="57.0186" y1="58.3434" y2="82.7512"/>
    <line x1="56.5138" x2="27.3484" y1="83.3447" y2="59.5108"/>
    <polyline points="90.2906,87.9098 90.6604,87.9362 91.0385,87.9814 91.414,88.0446 91.7861,88.1255 92.1539,88.2241 92.5165,88.34 92.8733,88.4731 93.2233,88.6229 93.5658,88.7893 93.9,88.9718 94.2251,89.17 94.5405,89.3834 94.8453,89.6116 95.1389,89.854 95.4206,90.1101 95.6899,90.3794 95.946,90.6611 96.1884,90.9547 96.4166,91.2595 96.63,91.5749 96.8282,91.9 97.0107,92.2342 97.1771,92.5767 97.3269,92.9267 97.46,93.2835 97.5759,93.6461 97.6745,94.0139 97.7554,94.386 97.8186,94.7615 97.8638,95.1396 97.8909,95.5193 97.9,95.9"/>
    <line x1="95.832" x2="144.0" y1="101.2643" y2="111.9043"/>
    <polyline points="144.0,150.7291 143.799,150.6752 143.4287,150.5987 143.0546,150.544 142.6779,150.511 142.3,150.5 141.9221,150.511 141.5454,150.544 141.1713,150.5987 140.801,150.6752 140.4358,150.7731 140.0769,150.892 139.7255,151.0316 139.3828,151.1914 139.05,151.3708 138.7282,151.5693 138.4185,151.7862 138.1219,152.0207 137.8394,152.2721 137.5721,152.5394 137.3207,152.8219 137.0862,153.1185 136.8693,153.4282 136.6708,153.75 136.4914,154.0828 136.3316,154.4255 136.192,154.7769 136.0731,155.1358 135.9752,155.501 135.8987,155.8713 135.844,156.2454 135.811,156.6221 135.8,157.0 135.811,157.3779 135.844,157.7546 135.8987,158.1287 135.9752,158.499 136.0731,158.8642 136.192,159.2231 136.3316,159.5745 136.4914,159.9172 136.6708,160.25 136.8693,160.5718 137.0862,160.8815 137.3207,161.1781 137.5721,161.4606 137.8394,161.7279 138.1219,161.9793 138.4185,162.2138 138.7282,162.4307 139.05,162.6292 139.3828,162.8086 139.7255,162.9684 140.0769,163.108 140.4358,163.2269 140.801,163.3248 141.1713,163.4013 141.5454,163.456 141.9221,163.489 142.3,163.5 142.6779,163.489 143.0546,163.456 143.4287,163.4013 143.799,163.3248 144.0,163.2709"/>
    <line x1="89.8473" x2="76.6828" y1="192.0" y2="121.1885"/>
    <line x1="74.8371" x2="82.2918" y1="122.4641" y2="192.0"/>
    <polyline points="75.2374,192.0 75.1282,191.8 74.93,191.4749 74.7166,191.1595 74.4884,190.8547 74.246,190.5611 73.9899,190.2794 73.7206,190.0101 73.4389,189.754 73.1453,189.5116 72.8405,189.2834 72.5251,189.07 72.2,188.8718 71.8658,188.6893 71.5233,188.5229 71.1733,188.3731 70.8165,188.24 70.4539,188.1241 70.0861,188.0255 69.714,187.9446 69.3385,187.8814 68.9604,187.8362 68.5807,187.8091 68.2,187.8 67.8193,187.8091 67.4396,187.8362 67.0615,187.8814 66.686,187.9446 66.3139,188.0255 65.9461,188.1241 65.5835,188.24 65.2267,188.3731 64.8767,188.5229 64.5342,188.6893 64.2,188.8718 63.8749,189.07 63.5595,189.2834 63.2547,189.5116 62.9611,189.754 62.6794,190.0101 62.4101,190.2794 62.154,190.5611 61.9116,190.8547 61.6834,191.1595 61.47,191.4749 61.2718,191.8 61.1626,192.0"/>
    <line x1="55.1027" x2="67.7963" y1="192.0" y2="119.883"/>
    <line x1="67.5949" x2="53.9574" y1="119.4383" y2="192.0"/>
    <line x1="67.2545" x2="70.6892" y1="192.0" y2="122.5165"/>
    <polygon points="92.0,96.0 91.9964,96.3785 91.9857,96.7568 91.9678,97.1349 91.9427,97.5126 91.9105,97.8897 91.8712,98.2662 91.8248,98.6418 91.7712,99.0165 91.7106,99.3901 91.6429,99.7625 91.5682,100.1335 91.4865,100.5031 91.3977,100.8711 91.3021,101.2373 91.1995,101.6016 91.0901,101.964 90.9738,102.3242 90.8507,102.6821 90.7209,103.0376 90.5844,103.3906 90.4412,103.741 90.2914,104.0886 90.135,104.4333 89.9722,104.775 89.8029,105.1135 89.6273,105.4488 89.4453,105.7807 89.2571,106.1091 89.0627,106.4338 88.8622,106.7549 88.6556,107.072 88.4431,107.3852 88.2247,107.6944 88.0005,107.9993 87.7706,108.3 87.535,108.5962 87.2938,108.8879 87.0472,109.1751 86.7952,109.4575 86.5378,109.735 86.2753,110.0077 86.0077,110.2753 85.735,110.5378 85.4575,110.7952 85.1751,111.0472 84.8879,111.2938 84.5962,111.535 84.3,111.7706 83.9993,112.0005 83.6944,112.2247 83.3852,112.4431 83.072,112.6556 82.7549,112.8622 82.4338,113.0627 82.1091,113.2571 81.7807,113.4453 81.4488,113.6273 81.1135,113.8029 80.775,113.9722 80.4333,114.135 80.0886,114.2914 79.741,114.4412 79.3906,114.5844 79.0376,114.7209 78.6821,114.8507 78.3242,114.9738 77.964,115.0901 77.6016,115.1995 77.2373,115.3021 76.8711,115.3977 76.5031,115.4865 76.1335,115.5682 75.7625,115.6429 75.3901,115.7106 75.0165,115.7712 74.6418,115.8248 74.2662,115.8712 73.8897,115.9105 73.5126,115.9427 73.1349,115.9678 72.7568,115.9857 72.3785,115.9964 72.0,116.0 71.6215,115.9964 71.2432,115.9857 70.8651,115.9678 70.4874,115.9427 70.1103,115.9105 69.7338,115.8712 69.3582,115.8248 68.9835,115.7712 68.6099,115.7106 68.2375,115.6429 67.8665,115.5682 67.4969,115.4865 67.1289,115.3977 66.7627,115.3021 66.3984,115.1995 66.036,115.0901 65.6758,114.9738 65.3179,114.8507 64.9624,114.7209 64.6094,114.5844 64.259,114.4412 63.9114,114.2914 63.5667,114.135 63.225,113.9722 62.8865,113.8029 62.5512,113.6273 62.2193,113.4453 61.8909,113.2571 61.5662,113.0627 61.2451,112.8622 60.928,112.6556 60.6148,112.4431 60.3056,112.2247 60.0007,112.0005 59.7,111.7706 59.4038,111.535 59.1121,111.2938 58.8249,111.0472 58.5425,110.7952 58.265,110.5378 57.9923,110.2753 57.7247,110.0077 57.4622,109.735 57.2048,109.4575 56.9528,109.1751 56.7062,108.8879 56.465,108.5962 56.2294,108.3 55.9995,107.9993 55.7753,107.6944 55.5569,107.3852 55.3444,107.072 55.1378,106.7549 54.9373,106.4338 54.7429,106.1091 54.5547,105.7807 54.3727,105.4488 54.1971,105.1135 54.0278,104.775 53.865,104.4333 53.7086,104.0886 53.5588,103.741 53.4156,103.3906 53.2791,103.0376 53.1493,102.6821 53.0262,102.3242 52.9099,101.964 52.8005,101.6016 52.6979,101.2373 52.6023,100.8711 52.5135,100.5031 52.4318,100.1335 52.3571,99.7625 52.2894,99.3901 52.2288,99.0165 52.1752,98.6418 52.1288,98.2662 52.0895,97.8897 52.0573,97.5126 52.0322,97.1349 52.0143,96.7568 52.0036,96.3785 52.0,96.0 52.0036,95.6215 52.0143,95.2432 52.0322,94.8651 52.0573,94.4874 52.0895,94.1103 52.1288,93.7338 52.1752,93.3582 52.2288,92.9835 52.2894,92.6099 52.3571,92.2375 52.4318,91.8665 52.5135,91.4969 52.6023,91.1289 52.6979,90.7627 52.8005,90.3984 52.9099,90.036 53.0262,89.6758 53.1493,89.3179 53.2791,88.9624 53.4156,88.6094 53.5588,88.259 53.7086,87.9114 53.865,87.5667 54.0278,87.225 54.1971,86.8865 54.3727,86.5512 54.5547,86.2193 54.7429,85.8909 54.9373,85.5662 55.1378,85.2451 55.3444,84.928 55.5569,84.6148 55.7753,84.3056 55.9995,84.0007 56.2294,83.7 56.465,83.4038 56.7062,83.1121 56.9528,82.8249 57.2048,82.5425 57.4622,82.265 57.7247,81.9923 57.9923,81.7247 58.265,81.4622 58.5425,81.2048 58.8249,80.9528 59.1121,80.7062 59.4038,80.465 59.7,80.2294 60.0007,79.9995 60.3056,79.7753 60.6148,79.5569 60.928,79.3444 61.2451,79.1378 61.5662,78.9373 61.8909,78.7429 62.2193,78.5547 62.5512,78.3727 62.8865,78.1971 63.225,78.0278 63.5667,77.865 63.9114,77.7086 64.259,77.5588 64.6094,77.4156 64.9624,77.2791 65.3179,77.1493 65.6758,77.0262 66.036,76.9099 66.3984,76.8005 66.7627,76.6979 67.1289,76.6023 67.4969,76.5135 67.8665,76.4318 68.2375,76.3571 68.6099,76.2894 68.9835,76.2288 69.3582,76.1752 69.7338,76.1288 70.1103,76.0895 70.4874,76.0573 70.8651,76.0322 71.2432,76.0143 71.6215,76.0036 72.0,76.0 72.3785,76.0036 72.7568,76.0143 73.1349,76.0322 73.5126,76.0573 73.8897,76.0895 74.2662,76.1288 74.6418,76.1752 75.0165,76.2288 75.3901,76.2894 75.7625,76.3571 76.1335,76.4318 76.5031,76.5135 76.8711,76.6023 77.2373,76.6979 77.6016,76.8005 77.964,76.9099 78.3242,77.0262 78.6821,77.1493 79.0376,77.2791 79.3906,77.4156 79.741,77.5588 80.0886,77.7086 80.4333,77.865 80.775,78.0278 81.1135,78.1971 81.4488,78.3727 81.7807,78.5547 82.1091,78.7429 82.4338,78.9373 82.7549,79.1378 83.072,79.3444 83.3852,79.5569 83.6944,79.7753 83.9993,79.9995 84.3,80.2294 84.5962,80.465 84.8879,80.7062 85.1751,80.9528 85.4575,81.2048 85.735,81.4622 86.0077,81.7247 86.2753,81.9923 86.5378,82.265 86.7952,82.5425 87.0472,82.8249 87.2938,83.1121 87.535,83.4038 87.7706,83.7 88.0005,84.0007 88.2247,84.3056 88.4431,84.6148 88.6556,84.928 88.8622,85.2451 89.0627,85.5662 89.2571,85.8909 89.4453,86.2193 89.6273,86.5512 89.8029,86.8865 89.9722,87.225 90.135,87.5667 90.2914,87.9114 90.4412,88.259 90.5844,88.6094 90.7209,88.9624 90.8507,89.3179 90.9738,89.6758 91.0901,90.036 91.1995,90.3984 91.3021,90.7627 91.3977,91.1289 91.4865,91.4969 91.5682,91.8665 91.6429,92.2375 91.7106,92.6099 91.7712,92.9835 91.8248,93.3582 91.8712,93.7338 91.9105,94.1103 91.9427,94.4874 91.9678,94.8651 91.9857,95.2432 91.9964,95.6215"/>
    <polygon points="33.9,171.4 33.8829,171.7922 33.8316,172.1814 33.7467,172.5647 33.6286,172.9391 33.4784,173.3018 33.2971,173.65 33.0862,173.9811 32.8472,174.2925 32.582,174.582 32.2925,174.8472 31.9811,175.0862 31.65,175.2971 31.3018,175.4784 30.9391,175.6286 30.5647,175.7467 30.1814,175.8316 29.7922,175.8829 29.4,175.9 29.0078,175.8829 28.6186,175.8316 28.2353,175.7467 27.8609,175.6286 27.4982,175.4784 27.15,175.2971 26.8189,175.0862 26.5075,174.8472 26.218,174.582 25.9528,174.2925 25.7138,173.9811 25.5029,173.65 25.3216,173.3018 25.1714,172.9391 25.0533,172.5647 24.9684,172.1814 24.9171,171.7922 24.9,171.4 24.9171,171.0078 24.9684,170.6186 25.0533,170.2353 25.1714,169.8609 25.3216,169.4982 25.5029,169.15 25.7138,168.8189 25.9528,168.5075 26.218,168.218 26.5075,167.9528 26.8189,167.7138 27.15,167.5029 27.4982,167.3216 27.8609,167.1714 28.2353,167.0533 28.6186,166.9684 29.0078,166.9171 29.4,166.9 29.7922,166.9171 30.1814,166.9684 30.5647,167.0533 30.9391,167.1714 31.3018,167.3216 31.65,167.5029 31.9811,167.7138 32.2925,167.9528 32.582,168.218 32.8472,168.5075 33.0862,168.8189 33.2971,169.15 33.4784,169.4982 33.6286,169.8609 33.7467,170.2353 33.8316,170.6186 33.8829,171.0078"/>
    <line x1="25.8438" x2="15.3017" y1="174.1505" y2="192.0"/>
    <line x1="14.4982" x2="25.4966" y1="192.0" y2="173.638"/>
  </g>
</svg>
