<?xml version="1.0" encoding="utf-8"?>
<!-- Generator: Adobe Illustrator 27.2.0, SVG Export Plug-In . SVG Version: 6.00 Build 0)  -->
<svg version="1.1" id="Layer_1" xmlns="http://www.w3.org/2000/svg" xmlns:xlink="http://www.w3.org/1999/xlink" x="0px" y="0px"
	 viewBox="0 0 144 192" style="enable-background:new 0 0 144 192;" xml:space="preserve">
<style type="text/css">
	.st0{fill:#FFFFFF;}
</style>
<g>
	<g>
		<rect class="st0" width="144" height="192"/>
	</g>
	<g transform="translate(72,96) rotate(318.4555)">
		<path class="st0" d="M0,0l141.1,28.9l0-57.7L0,0z"/>
	</g>
	<g transform="translate(72,96) rotate(313.1247)">
		<path class="st0" d="M0,0l142.4,21.7l0-43.5L0,0z"/>
	</g>
	<g transform="translate(72,96) rotate(-5.6517)">
		<path class="st0" d="M0,0l143.7,9.9V-9.9L0,0z"/>
	</g>
	<g transform="translate(72,96) rotate(114.4283)">
		<path class="st0" d="M0,0l143.2,15.4v-30.7L0,0z"/>
	</g>
	<g transform="translate(72,96) rotate(36.1535)">
		<path class="st0" d="M0,0l143.8,8l0-16L0,0z"/>
	</g>
	<g transform="translate(72,96) rotate(220.9525)">
		<path class="st0" d="M0,0l141.4,27.4v-54.7L0,0z"/>
	</g>
	<g transform="translate(72,96) rotate(212.8759)">
		<path class="st0" d="M0,0l143.1,16V-16L0,0z"/>
	</g>
	<g transform="translate(72,96) rotate(127.4334)">
		<path class="st0" d="M0,0l143.7,9l0-18L0,0z"/>
	</g>
	<g transform="translate(72,96) rotate(106.8219)">
		<path class="st0" d="M0,0l143.2,15.4l0-30.9L0,0z"/>
	</g>
	<g transform="translate(72,96) rotate(152.4574)">
		<path class="st0" d="M0,0l142.6,20.3v-40.6L0,0z"/>
	</g>
	<g transform="translate(72,96) rotate(288.7584)">
		<path class="st0" d="M0,0l142.6,19.9v-39.9L0,0z"/>
	</g>
	<g transform="translate(72,96) rotate(244.5979)">
		<path class="st0" d="M0,0l143.4,12.6l0-25.3L0,0z"/>
	</g>
	<g transform="translate(72,96) rotate(166.102)">
		<path class="st0" d="M0,0l141.9,24.6v-49.2L0,0z"/>
	</g>
	<g transform="translate(72,96) rotate(86.1294)">
		<path class="st0" d="M0,0l143,16.8l0-33.5L0,0z"/>
	</g>
	<g transform="translate(72,96) rotate(74.4055)">
		<path class="st0" d="M0,0l142,23.7l0-47.4L0,0z"/>
	</g>
	<g transform="translate(72,96) rotate(128.6625)">
		<path class="st0" d="M0,0l142.7,19.4l0-38.8L0,0z"/>
	</g>
	<g transform="translate(72,96) rotate(256.2329)">
		<path class="st0" d="M0,0l142.2,23l0-45.9L0,0z"/>
	</g>
	<g transform="translate(72,96) rotate(212.9807)">
		<path class="st0" d="M0,0l142.4,21.3l0-42.6L0,0z"/>
	</g>
	<g transform="translate(72,96) rotate(9.1925)">
		<path class="st0" d="M0,0l143.8,8.2l0-16.4L0,0z"/>
	</g>
	<g transform="translate(72,96) rotate(49.8919)">
		<path class="st0" d="M0,0l141.9,24.3l0-48.6L0,0z"/>
	</g>
	<g transform="translate(72,96) rotate(15.1186)">
		<path class="st0" d="M0,0l141.9,24.4v-48.8L0,0z"/>
	</g>
	<g transform="translate(72,96) rotate(103.6061)">
		<path class="st0" d="M0,0l143.7,9.1l0-18.2L0,0z"/>
	</g>
	<g transform="translate(72,96) rotate(-7.6687)">
		<path class="st0" d="M0,0l141.3,27.5l0-55.1L0,0z"/>
	</g>
	<g transform="translate(72,96) rotate(261.3555)">
		<path class="st0" d="M0,0l143.3,14.6v-29.3L0,0z"/>
	</g>
	<g transform="translate(72,96) rotate(302.9714)">
		<path class="st0" d="M0,0l141.6,26.4l0-52.8L0,0z"/>
	</g>
	<g transform="translate(72,96) rotate(278.6797)">
		<path class="st0" d="M0,0l141.4,27.2l0-54.5L0,0z"/>
	</g>
	<g transform="translate(72,96) rotate(353.4704)">
		<path class="st0" d="M0,0l142.9,17.5l0-35.1L0,0z"/>
	</g>
	<g transform="translate(72,96) rotate(309.1705)">
		<path class="st0" d="M0,0l143.2,14.8v-29.7L0,0z"/>
	</g>
	<g transform="translate(72,96) rotate(167.2723)">
		<path class="st0" d="M0,0l142.9,17.8v-35.5L0,0z"/>
	</g>
	<g transform="translate(72,96) rotate(135.408)">
		<path class="st0" d="M0,0l142.2,22.9l0-45.9L0,0z"/>
	</g>
	<g transform="translate(72,96) rotate(126.7675)">
		<path class="st0" d="M0,0l141.4,27.2l0-54.5L0,0z"/>
	</g>
	<g transform="translate(72,96) rotate(341.1578)">
		<path class="st0" d="M0,0l142.3,21.9v-43.9L0,0z"/>
	</g>
	<g>
		<circle class="st0" cx="72.7" cy="117.4" r="5.5"/>
		<circle class="st0" cx="26" cy="54.7" r="5"/>
		<circle class="st0" cx="80.7" cy="104.2" r="7.5"/>
		<circle class="st0" cx="131.2" cy="95.3" r="6.5"/>
		<circle class="st0" cx="68.2" cy="195.8" r="8"/>
		<circle class="st0" cx="89.9" cy="95.9" r="8"/>
		<circle class="st0" cx="74.6" cy="98" r="4.5"/>
		<circle class="st0" cx="64.1" cy="101.5" r="7.5"/>
		<circle class="st0" cx="72" cy="96" r="7.5"/>
		<circle class="st0" cx="72" cy="96" r="7"/>
		<circle class="st0" cx="69.8" cy="96.1" r="5.5"/>
		<circle class="st0" cx="71.7" cy="53.4" r="8"/>
		<circle class="st0" cx="70.9" cy="96.7" r="6.5"/>
		<circle class="st0" cx="29.4" cy="171.4" r="4.5"/>
		<circle class="st0" cx="70.5" cy="96.5" r="5.5"/>
		<circle class="st0" cx="81.7" cy="94.1" r="8"/>
		<circle class="st0" cx="70.4" cy="91.3" r="7.5"/>
		<circle class="st0" cx="166.2" cy="68.7" r="4.5"/>
		<circle class="st0" cx="85.8" cy="59.2" r="5.5"/>
		<circle class="st0" cx="41.7" cy="112.2" r="7.5"/>
		<circle class="st0" cx="92.3" cy="61.5" r="7"/>
		<circle class="st0" cx="78.8" cy="93.7" r="5.5"/>
		<circle class="st0" cx="142.3" cy="157" r="6.5"/>
		<circle class="st0" cx="72.5" cy="96.7" r="7"/>
		<circle class="st0" cx="72" cy="96" r="20"/>
	</g>
</g>
</svg>
