<?xml version="1.0" encoding="utf-8" ?>
<svg xmlns="http://www.w3.org/2000/svg" xmlns:cc="http://creativecommons.org/ns" xmlns:dc="http://purl.org/dc/elements/1.1/" xmlns:ev="http://www.w3.org/2001/xml-events" xmlns:inkscape="http://www.inkscape.org/namespaces/inkscape" xmlns:rdf="http://www.w3.org/1999/02/22-rdf-syntax-ns" xmlns:sodipodi="http://sodipodi.sourceforge.net/DTD/sodipodi-0.dtd" xmlns:xlink="http://www.w3.org/1999/xlink" baseProfile="tiny" height="5.08cm" version="1.2" viewBox="0 0 144.0 192.0" width="3.81cm">
  <metadata>
    <rdf:RDF>
      <cc:Work>
        <dc:format>image/svg+xml</dc:format>
        <dc:source>vpype read radials-1.svg occult -i linesort write radials-1-o.svg
</dc:source>
        <dc:date>2024-11-09T22:23:35.853460</dc:date>
      </cc:Work>
    </rdf:RDF>
  </metadata>
  <defs/>
  <g fill="none" id="layer1" inkscape:groupmode="layer" inkscape:label="1" stroke="#000000" style="display:inline">
    <polygon points="0.0,0.0 144.0,0.0 144.0,192.0 0.0,192.0"/>
    <line x1="0.0" x2="59.6619" y1="4.1462" y2="80.2597"/>
    <line x1="59.6619" x2="0.0" y1="80.2597" y2="4.1462"/>
    <line x1="15.6049" x2="61.8698" y1="0.0" y2="78.7556"/>
    <line x1="61.8698" x2="15.6049" y1="78.7556" y2="0.0"/>
    <line x1="31.3546" x2="64.2025" y1="-0.0" y2="77.5832"/>
    <line x1="64.2025" x2="31.3546" y1="77.5832" y2="-0.0"/>
    <line x1="36.351" x2="65.0379" y1="0.0" y2="77.2515"/>
    <line x1="65.0379" x2="36.351" y1="77.2515" y2="0.0"/>
    <line x1="47.2169" x2="67.001" y1="0.0" y2="76.6357"/>
    <line x1="67.001" x2="47.2169" y1="76.6357" y2="0.0"/>
    <line x1="64.2981" x2="68.0151" y1="0.0" y2="46.33"/>
    <line x1="68.0151" x2="64.2981" y1="46.33" y2="0.0"/>
    <line x1="67.2818" x2="69.5293" y1="0.0" y2="45.7288"/>
    <line x1="69.5293" x2="67.2818" y1="45.7288" y2="0.0"/>
    <line x1="68.2645" x2="70.039" y1="0.0" y2="45.603"/>
    <line x1="70.039" x2="68.2645" y1="45.603" y2="0.0"/>
    <line x1="90.3082" x2="75.7466" y1="0.0" y2="76.3542"/>
    <line x1="75.7466" x2="90.3082" y1="76.3542" y2="0.0"/>
    <line x1="106.1609" x2="87.0097" y1="0.0" y2="53.8194"/>
    <line x1="87.0097" x2="106.1609" y1="53.8194" y2="0.0"/>
    <line x1="111.5776" x2="89.0193" y1="0.0" y2="54.7176"/>
    <line x1="89.0193" x2="111.5776" y1="54.7176" y2="0.0"/>
    <line x1="120.3241" x2="92.883" y1="0.0" y2="54.5141"/>
    <line x1="92.883" x2="120.3241" y1="54.5141" y2="0.0"/>
    <line x1="134.9563" x2="97.6324" y1="-0.0" y2="56.914"/>
    <line x1="97.6324" x2="134.9563" y1="56.914" y2="-0.0"/>
    <line x1="137.8457" x2="98.2436" y1="0.0" y2="57.738"/>
    <line x1="98.2436" x2="137.8457" y1="57.738" y2="0.0"/>
    <line x1="144.0" x2="99.1377" y1="0.0656" y2="59.8412"/>
    <line x1="99.1377" x2="144.0" y1="59.8412" y2="0.0656"/>
    <line x1="144.0" x2="85.7764" y1="20.2288" y2="81.502"/>
    <line x1="85.7764" x2="144.0" y1="81.502" y2="20.2288"/>
    <line x1="144.0" x2="86.1623" y1="24.2116" y2="81.8793"/>
    <line x1="86.1623" x2="144.0" y1="81.8793" y2="24.2116"/>
    <line x1="144.0" x2="87.7174" y1="39.3486" y2="83.6332"/>
    <line x1="87.7174" x2="144.0" y1="83.6332" y2="39.3486"/>
    <line x1="144.0" x2="89.3237" y1="54.4681" y2="86.0072"/>
    <line x1="89.3237" x2="144.0" y1="86.0072" y2="54.4681"/>
    <line x1="144.0" x2="89.7219" y1="58.3452" y2="86.7318"/>
    <line x1="89.7219" x2="144.0" y1="86.7318" y2="58.3452"/>
    <line x1="144.0" x2="93.383" y1="71.6366" y2="88.7644"/>
    <line x1="93.383" x2="144.0" y1="88.7644" y2="71.6366"/>
    <line x1="144.0" x2="95.5597" y1="78.684" y2="90.3339"/>
    <line x1="95.5597" x2="144.0" y1="90.3339" y2="78.684"/>
    <line x1="144.0" x2="96.596" y1="83.2065" y2="91.6296"/>
    <line x1="96.596" x2="144.0" y1="91.6296" y2="83.2065"/>
    <line x1="144.0" x2="96.715" y1="83.8371" y2="91.8249"/>
    <line x1="96.715" x2="144.0" y1="91.8249" y2="83.8371"/>
    <line x1="144.0" x2="137.5462" y1="93.8443" y2="94.0375"/>
    <line x1="137.5462" x2="144.0" y1="94.0375" y2="93.8443"/>
    <line x1="144.0" x2="137.5575" y1="96.5826" y2="96.5305"/>
    <line x1="137.5575" x2="144.0" y1="96.5305" y2="96.5826"/>
    <line x1="144.0" x2="135.9225" y1="100.2239" y2="99.75"/>
    <line x1="135.9225" x2="144.0" y1="99.75" y2="100.2239"/>
    <line x1="144.0" x2="132.4889" y1="102.7543" y2="101.6745"/>
    <line x1="132.4889" x2="144.0" y1="101.6745" y2="102.7543"/>
    <line x1="144.0" x2="97.3898" y1="103.4888" y2="98.6408"/>
    <line x1="97.3898" x2="144.0" y1="98.6408" y2="103.4888"/>
    <line x1="144.0" x2="95.8349" y1="111.8921" y2="101.2609"/>
    <line x1="95.8349" x2="144.0" y1="101.2609" y2="111.8921"/>
    <line x1="144.0" x2="90.1439" y1="129.3876" y2="104.4137"/>
    <line x1="90.1439" x2="144.0" y1="104.4137" y2="129.3876"/>
    <line x1="144.0" x2="88.7768" y1="142.719" y2="106.886"/>
    <line x1="88.7768" x2="144.0" y1="106.886" y2="142.719"/>
    <polyline points="144.0,150.7371 143.7706,150.6756 143.4003,150.5991 143.0262,150.5444 142.6495,150.5114 142.2716,150.5004 141.8937,150.5114 141.517,150.5444 141.1429,150.5991 140.7726,150.6756 140.4074,150.7735 140.0485,150.8924 139.6971,151.032 139.3544,151.1918 139.0216,151.3712 138.6998,151.5697 138.3901,151.7866 138.0935,152.0211 137.811,152.2725 137.5437,152.5398 137.2923,152.8223 137.0578,153.1189 136.8409,153.4286 136.6424,153.7504 136.463,154.0832 136.3032,154.4259 136.1636,154.7773 136.0447,155.1362 135.9468,155.5014 135.8703,155.8717 135.8156,156.2458 135.7826,156.6225 135.7716,157.0004 135.7826,157.3783 135.8156,157.755 135.8703,158.1291 135.9468,158.4994 136.0447,158.8646 136.1636,159.2235 136.3032,159.5749 136.463,159.9176 136.6424,160.2504 136.8409,160.5722 137.0578,160.8819 137.2923,161.1785 137.5437,161.461 137.811,161.7283 138.0935,161.9797 138.3901,162.2142 138.6998,162.4311 139.0216,162.6296 139.3544,162.809 139.6971,162.9688 140.0485,163.1084 140.4074,163.2273 140.7726,163.3252 141.1429,163.4017 141.517,163.4564 141.8937,163.4894 142.2716,163.5004 142.6495,163.4894 143.0262,163.4564 143.4003,163.4017 143.7706,163.3252 144.0,163.2637"/>
    <polyline points="144.0,163.2637 143.7706,163.3252 143.4003,163.4017 143.0262,163.4564 142.6495,163.4894 142.2716,163.5004 141.8937,163.4894 141.517,163.4564 141.1429,163.4017 140.7726,163.3252 140.4074,163.2273 140.0485,163.1084 139.6971,162.9688 139.3544,162.809 139.0216,162.6296 138.6998,162.4311 138.3901,162.2142 138.0935,161.9797 137.811,161.7283 137.5437,161.461 137.2923,161.1785 137.0578,160.8819 136.8409,160.5722 136.6424,160.2504 136.463,159.9176 136.3032,159.5749 136.1636,159.2235 136.0447,158.8646 135.9468,158.4994 135.8703,158.1291 135.8156,157.755 135.7826,157.3783 135.7716,157.0004 135.7826,156.6225 135.8156,156.2458 135.8703,155.8717 135.9468,155.5014 136.0447,155.1362 136.1636,154.7773 136.3032,154.4259 136.463,154.0832 136.6424,153.7504 136.8409,153.4286 137.0578,153.1189 137.2923,152.8223 137.5437,152.5398 137.811,152.2725 138.0935,152.0211 138.3901,151.7866 138.6998,151.5697 139.0216,151.3712 139.3544,151.1918 139.6971,151.032 140.0485,150.8924 140.4074,150.7735 140.7726,150.6756 141.1429,150.5991 141.517,150.5444 141.8937,150.5114 142.2716,150.5004 142.6495,150.5114 143.0262,150.5444 143.4003,150.5991 143.7706,150.6756 144.0,150.7371"/>
    <line x1="144.0" x2="87.47" y1="154.9911" y2="108.6749"/>
    <line x1="87.47" x2="144.0" y1="108.6749" y2="154.9911"/>
    <line x1="144.0" x2="87.2793" y1="156.8113" y2="108.9049"/>
    <line x1="87.2793" x2="144.0" y1="108.9049" y2="156.8113"/>
    <line x1="128.3244" x2="82.1208" y1="192.0" y2="113.25"/>
    <line x1="82.1208" x2="128.3244" y1="113.25" y2="192.0"/>
    <line x1="116.8866" x2="80.471" y1="192.0" y2="114.1171"/>
    <line x1="80.471" x2="116.8866" y1="114.1171" y2="192.0"/>
    <line x1="89.8924" x2="76.6987" y1="192.0" y2="121.2103"/>
    <line x1="76.6987" x2="89.8924" y1="121.2103" y2="192.0"/>
    <line x1="82.3098" x2="74.8447" y1="192.0" y2="122.4882"/>
    <line x1="74.8447" x2="82.3098" y1="122.4882" y2="192.0"/>
    <polyline points="75.2585,192.0 75.1349,191.7737 74.9367,191.4486 74.7233,191.1332 74.4951,190.8284 74.2527,190.5348 73.9966,190.2531 73.7273,189.9838 73.4456,189.7277 73.152,189.4853 72.8472,189.2571 72.5318,189.0437 72.2067,188.8455 71.8725,188.663 71.53,188.4966 71.18,188.3468 70.8232,188.2137 70.4606,188.0978 70.0928,187.9992 69.7207,187.9183 69.3452,187.8551 68.9671,187.8099 68.5874,187.7828 68.2067,187.7737 67.826,187.7828 67.4463,187.8099 67.0682,187.8551 66.6927,187.9183 66.3206,187.9992 65.9528,188.0978 65.5902,188.2137 65.2334,188.3468 64.8834,188.4966 64.5409,188.663 64.2067,188.8455 63.8816,189.0437 63.5662,189.2571 63.2614,189.4853 62.9678,189.7277 62.6861,189.9838 62.4168,190.2531 62.1607,190.5348 61.9183,190.8284 61.6901,191.1332 61.4767,191.4486 61.2785,191.7737 61.1549,192.0"/>
    <polyline points="61.1549,192.0 61.2785,191.7737 61.4767,191.4486 61.6901,191.1332 61.9183,190.8284 62.1607,190.5348 62.4168,190.2531 62.6861,189.9838 62.9678,189.7277 63.2614,189.4853 63.5662,189.2571 63.8816,189.0437 64.2067,188.8455 64.5409,188.663 64.8834,188.4966 65.2334,188.3468 65.5902,188.2137 65.9528,188.0978 66.3206,187.9992 66.6927,187.9183 67.0682,187.8551 67.4463,187.8099 67.826,187.7828 68.2067,187.7737 68.5874,187.7828 68.9671,187.8099 69.3452,187.8551 69.7207,187.9183 70.0928,187.9992 70.4606,188.0978 70.8232,188.2137 71.18,188.3468 71.53,188.4966 71.8725,188.663 72.2067,188.8455 72.5318,189.0437 72.8472,189.2571 73.152,189.4853 73.4456,189.7277 73.7273,189.9838 73.9966,190.2531 74.2527,190.5348 74.4951,190.8284 74.7233,191.1332 74.9367,191.4486 75.1349,191.7737 75.2585,192.0"/>
    <line x1="67.2773" x2="70.6948" y1="192.0" y2="122.5313"/>
    <line x1="70.6948" x2="67.2773" y1="122.5313" y2="192.0"/>
    <line x1="55.1081" x2="67.7993" y1="192.0" y2="119.8736"/>
    <line x1="67.7993" x2="55.1081" y1="119.8736" y2="192.0"/>
    <line x1="53.9181" x2="67.5913" y1="192.0" y2="119.4067"/>
    <line x1="67.5913" x2="53.9181" y1="119.4067" y2="192.0"/>
    <line x1="42.223" x2="66.075" y1="192.0" y2="115.1019"/>
    <line x1="66.075" x2="42.223" y1="115.1019" y2="192.0"/>
    <line x1="40.2432" x2="65.7189" y1="192.0" y2="114.9877"/>
    <line x1="65.7189" x2="40.2432" y1="114.9877" y2="192.0"/>
    <line x1="31.296" x2="64.193" y1="192.0" y2="114.4127"/>
    <line x1="64.193" x2="31.296" y1="114.4127" y2="192.0"/>
    <line x1="25.4507" x2="63.2741" y1="192.0" y2="113.9956"/>
    <line x1="63.2741" x2="25.4507" y1="113.9956" y2="192.0"/>
    <line x1="15.3334" x2="25.8609" y1="192.0" y2="174.1651"/>
    <line x1="25.8609" x2="15.3334" y1="174.1651" y2="192.0"/>
    <line x1="14.4929" x2="25.5023" y1="192.0" y2="173.6215"/>
    <line x1="25.5023" x2="14.4929" y1="173.6215" y2="192.0"/>
    <line x1="7.6251" x2="60.8615" y1="192.0" y2="112.6105"/>
    <line x1="60.8615" x2="7.6251" y1="112.6105" y2="192.0"/>
    <line x1="1.6384" x2="60.1774" y1="192.0" y2="112.1305"/>
    <line x1="60.1774" x2="1.6384" y1="112.1305" y2="192.0"/>
    <line x1="-0.0" x2="58.8733" y1="178.762" y2="111.0887"/>
    <line x1="58.8733" x2="-0.0" y1="111.0887" y2="178.762"/>
    <line x1="-0.0" x2="57.5165" y1="164.5598" y2="109.7915"/>
    <line x1="57.5165" x2="-0.0" y1="109.7915" y2="164.5598"/>
    <line x1="0.0" x2="57.2153" y1="161.5913" y2="109.4687"/>
    <line x1="57.2153" x2="0.0" y1="109.4687" y2="161.5913"/>
    <line x1="0.0" x2="39.3968" y1="147.6181" y2="119.3738"/>
    <line x1="39.3968" x2="0.0" y1="119.3738" y2="147.6181"/>
    <line x1="-0.0" x2="39.2219" y1="147.2112" y2="119.314"/>
    <line x1="39.2219" x2="-0.0" y1="119.314" y2="147.2112"/>
    <line x1="0.0" x2="34.1703" y1="127.6597" y2="112.6344"/>
    <line x1="34.1703" x2="0.0" y1="112.6344" y2="127.6597"/>
    <line x1="0.0" x2="34.6981" y1="121.9339" y2="109.4359"/>
    <line x1="34.6981" x2="0.0" y1="109.4359" y2="121.9339"/>
    <line x1="0.0" x2="34.8312" y1="121.4227" y2="109.1241"/>
    <line x1="34.8312" x2="0.0" y1="109.1241" y2="121.4227"/>
    <line x1="0.0" x2="52.0976" y1="103.1189" y2="97.9678"/>
    <line x1="52.0976" x2="0.0" y1="97.9678" y2="103.1189"/>
    <line x1="0.0" x2="52.0509" y1="101.1106" y2="97.416"/>
    <line x1="52.0509" x2="0.0" y1="97.416" y2="101.1106"/>
    <line x1="0.0" x2="53.7983" y1="63.2225" y2="87.7138"/>
    <line x1="53.7983" x2="0.0" y1="87.7138" y2="63.2225"/>
    <line x1="0.0" x2="54.0998" y1="60.1254" y2="87.0811"/>
    <line x1="54.0998" x2="0.0" y1="87.0811" y2="60.1254"/>
    <line x1="0.0" x2="54.6795" y1="54.437" y2="86.0015"/>
    <line x1="54.6795" x2="0.0" y1="86.0015" y2="54.437"/>
    <line x1="0.0" x2="20.9829" y1="37.1387" y2="54.2925"/>
    <line x1="20.9829" x2="0.0" y1="54.2925" y2="37.1387"/>
    <line x1="0.0" x2="21.9585" y1="32.3349" y2="51.7514"/>
    <line x1="21.9585" x2="0.0" y1="51.7514" y2="32.3349"/>
    <polygon points="30.9603,54.7453 30.9449,55.1376 30.8987,55.5275 30.8221,55.9125 30.7156,56.2904 30.5797,56.6587 30.4153,57.0153 30.2235,57.3578 30.0054,57.6842 29.7623,57.9925 29.4958,58.2808 29.2075,58.5473 28.8992,58.7904 28.5728,59.0085 28.2303,59.2003 27.8737,59.3647 27.5054,59.5006 27.1275,59.6071 26.7425,59.6837 26.3526,59.7299 25.9603,59.7453 25.568,59.7299 25.1781,59.6837 24.7931,59.6071 24.4152,59.5006 24.0469,59.3647 23.6903,59.2003 23.3478,59.0085 23.0214,58.7904 22.7131,58.5473 22.4248,58.2808 22.1583,57.9925 21.9152,57.6842 21.6971,57.3578 21.5053,57.0153 21.3409,56.6587 21.205,56.2904 21.0985,55.9125 21.0219,55.5275 20.9757,55.1376 20.9603,54.7453 20.9757,54.353 21.0219,53.9631 21.0985,53.5781 21.205,53.2002 21.3409,52.8319 21.5053,52.4753 21.6971,52.1328 21.9152,51.8064 22.1583,51.4981 22.4248,51.2098 22.7131,50.9433 23.0214,50.7002 23.3478,50.4821 23.6903,50.2903 24.0469,50.1259 24.4152,49.99 24.7931,49.8835 25.1781,49.8069 25.568,49.7607 25.9603,49.7453 26.3526,49.7607 26.7425,49.8069 27.1275,49.8835 27.5054,49.99 27.8737,50.1259 28.2303,50.2903 28.5728,50.4821 28.8992,50.7002 29.2075,50.9433 29.4958,51.2098 29.7623,51.4981 30.0054,51.8064 30.2235,52.1328 30.4153,52.4753 30.5797,52.8319 30.7156,53.2002 30.8221,53.5781 30.8987,53.9631 30.9449,54.353"/>
    <line x1="29.421" x2="57.0178" y1="58.35" y2="82.7521"/>
    <line x1="57.0178" x2="29.421" y1="82.7521" y2="58.35"/>
    <line x1="27.3924" x2="56.5163" y1="59.5324" y2="83.3418"/>
    <line x1="56.5163" x2="27.3924" y1="83.3418" y2="59.5324"/>
    <line x1="69.1933" x2="70.4006" y1="61.0155" y2="76.0647"/>
    <line x1="70.4006" x2="69.1933" y1="76.0647" y2="61.0155"/>
    <line x1="70.2944" x2="71.0183" y1="61.2957" y2="76.025"/>
    <line x1="71.0183" x2="70.2944" y1="76.025" y2="61.2957"/>
    <line x1="70.6518" x2="71.2224" y1="61.352" y2="76.0153"/>
    <line x1="71.2224" x2="70.6518" y1="76.0153" y2="61.352"/>
    <polygon points="79.7114,53.424 79.7023,53.8047 79.6752,54.1844 79.63,54.5625 79.5668,54.938 79.4859,55.3101 79.3873,55.6779 79.2714,56.0405 79.1383,56.3973 78.9885,56.7473 78.8221,57.0898 78.6396,57.424 78.4414,57.7491 78.228,58.0645 77.9998,58.3693 77.7574,58.6629 77.5013,58.9446 77.232,59.2139 76.9503,59.47 76.6567,59.7124 76.3519,59.9406 76.0365,60.154 75.7114,60.3522 75.3772,60.5347 75.0347,60.7011 74.6847,60.8509 74.3279,60.984 73.9653,61.0999 73.5975,61.1985 73.2254,61.2794 72.8499,61.3426 72.4718,61.3878 72.0921,61.4149 71.7114,61.424 71.3307,61.4149 70.951,61.3878 70.5729,61.3426 70.1974,61.2794 69.8253,61.1985 69.4575,61.0999 69.0949,60.984 68.7381,60.8509 68.3881,60.7011 68.0456,60.5347 67.7114,60.3522 67.3863,60.154 67.0709,59.9406 66.7661,59.7124 66.4725,59.47 66.1908,59.2139 65.9215,58.9446 65.6654,58.6629 65.423,58.3693 65.1948,58.0645 64.9814,57.7491 64.7832,57.424 64.6007,57.0898 64.4343,56.7473 64.2845,56.3973 64.1514,56.0405 64.0355,55.6779 63.9369,55.3101 63.856,54.938 63.7928,54.5625 63.7476,54.1844 63.7205,53.8047 63.7114,53.424 63.7205,53.0433 63.7476,52.6636 63.7928,52.2855 63.856,51.91 63.9369,51.5379 64.0355,51.1701 64.1514,50.8075 64.2845,50.4507 64.4343,50.1007 64.6007,49.7582 64.7832,49.424 64.9814,49.0989 65.1948,48.7835 65.423,48.4787 65.6654,48.1851 65.9215,47.9034 66.1908,47.6341 66.4725,47.378 66.7661,47.1356 67.0709,46.9074 67.3863,46.694 67.7114,46.4958 68.0456,46.3133 68.3881,46.1469 68.7381,45.9971 69.0949,45.864 69.4575,45.7481 69.8253,45.6495 70.1974,45.5686 70.5729,45.5054 70.951,45.4602 71.3307,45.4331 71.7114,45.424 72.0921,45.4331 72.4718,45.4602 72.8499,45.5054 73.2254,45.5686 73.5975,45.6495 73.9653,45.7481 74.3279,45.864 74.6847,45.9971 75.0347,46.1469 75.3772,46.3133 75.7114,46.4958 76.0365,46.694 76.3519,46.9074 76.6567,47.1356 76.9503,47.378 77.232,47.6341 77.5013,47.9034 77.7574,48.1851 77.9998,48.4787 78.228,48.7835 78.4414,49.0989 78.6396,49.424 78.8221,49.7582 78.9885,50.1007 79.1383,50.4507 79.2714,50.8075 79.3873,51.1701 79.4859,51.5379 79.5668,51.91 79.63,52.2855 79.6752,52.6636 79.7023,53.0433"/>
    <polyline points="89.4924,55.0965 89.4234,55.0323 89.1177,54.7859 88.7952,54.562 88.4576,54.3617 88.1065,54.1859 87.7438,54.0357 87.3712,53.9117 86.9908,53.8146 86.6044,53.7449 86.2141,53.7029 85.8217,53.6889 85.4293,53.7029 85.039,53.7449 84.6526,53.8146 84.2722,53.9117 83.8996,54.0357 83.5369,54.1859 83.1858,54.3617 82.8482,54.562 82.5257,54.7859 82.22,55.0323 81.9326,55.2998 81.6651,55.5872 81.4187,55.8929 81.1948,56.2154 80.9945,56.553 80.8187,56.9041 80.6685,57.2668 80.5445,57.6394 80.4474,58.0198 80.3777,58.4062 80.3357,58.7965 80.3217,59.1889 80.3357,59.5813 80.3777,59.9716 80.4474,60.358 80.5445,60.7384 80.6685,61.111 80.8187,61.4737 80.9945,61.8248 81.1948,62.1624 81.4187,62.4849 81.6651,62.7906 81.9326,63.078 82.22,63.3455 82.5257,63.5919 82.8482,63.8158 83.1858,64.0161 83.5369,64.1919 83.8996,64.3421 84.2722,64.4661 84.6526,64.5632 85.039,64.6329 85.4293,64.6749 85.8217,64.6889 86.1078,64.6787"/>
    <line x1="84.939" x2="79.6226" y1="64.6149" y2="77.5104"/>
    <line x1="79.6226" x2="84.939" y1="77.5104" y2="64.6149"/>
    <line x1="83.3517" x2="78.7049" y1="64.0992" y2="77.1576"/>
    <line x1="78.7049" x2="83.3517" y1="77.1576" y2="64.0992"/>
    <line x1="87.0586" x2="80.9921" y1="66.0849" y2="78.1364"/>
    <line x1="80.9921" x2="87.0586" y1="78.1364" y2="66.0849"/>
    <line x1="90.2511" x2="82.9674" y1="68.1695" y2="79.2762"/>
    <line x1="82.9674" x2="90.2511" y1="79.2762" y2="68.1695"/>
    <line x1="90.9637" x2="83.3122" y1="68.3517" y2="79.5073"/>
    <line x1="83.3122" x2="90.9637" y1="79.5073" y2="68.3517"/>
    <line x1="92.6529" x2="84.0052" y1="68.4816" y2="80.004"/>
    <line x1="84.0052" x2="92.6529" y1="80.004" y2="68.4816"/>
    <polygon points="99.3372,61.4902 99.3269,61.8692 99.2962,62.247 99.245,62.6227 99.1735,62.995 99.082,63.3629 98.9708,63.7253 98.84,64.0812 98.6902,64.4294 98.5218,64.7691 98.3352,65.0991 98.131,65.4185 97.9099,65.7264 97.6723,66.0219 97.4192,66.3041 97.1511,66.5722 96.8689,66.8253 96.5734,67.0629 96.2655,67.284 95.9461,67.4882 95.6161,67.6748 95.2764,67.8432 94.9282,67.993 94.5723,68.1238 94.2099,68.235 93.842,68.3265 93.4697,68.398 93.094,68.4492 92.7162,68.4799 92.3372,68.4902 91.9582,68.4799 91.5804,68.4492 91.2047,68.398 90.8324,68.3265 90.4645,68.235 90.1021,68.1238 89.7462,67.993 89.398,67.8432 89.0583,67.6748 88.7283,67.4882 88.4089,67.284 88.101,67.0629 87.8055,66.8253 87.5233,66.5722 87.2552,66.3041 87.0021,66.0219 86.7645,65.7264 86.5434,65.4185 86.3392,65.0991 86.1526,64.7691 85.9842,64.4294 85.8344,64.0812 85.7036,63.7253 85.5924,63.3629 85.5009,62.995 85.4294,62.6227 85.3782,62.247 85.3475,61.8692 85.3372,61.4902 85.3475,61.1112 85.3782,60.7334 85.4294,60.3577 85.5009,59.9854 85.5924,59.6175 85.7036,59.2551 85.8344,58.8992 85.9842,58.551 86.1526,58.2113 86.3392,57.8813 86.5434,57.5619 86.7645,57.254 87.0021,56.9585 87.2552,56.6763 87.5233,56.4082 87.8055,56.1551 88.101,55.9175 88.4089,55.6964 88.7283,55.4922 89.0583,55.3056 89.398,55.1372 89.7462,54.9874 90.1021,54.8566 90.4645,54.7454 90.8324,54.6539 91.2047,54.5824 91.5804,54.5312 91.9582,54.5005 92.3372,54.4902 92.7162,54.5005 93.094,54.5312 93.4697,54.5824 93.842,54.6539 94.2099,54.7454 94.5723,54.8566 94.9282,54.9874 95.2764,55.1372 95.6161,55.3056 95.9461,55.4922 96.2655,55.6964 96.5734,55.9175 96.8689,56.1551 97.1511,56.4082 97.4192,56.6763 97.6723,56.9585 97.9099,57.254 98.131,57.5619 98.3352,57.8813 98.5218,58.2113 98.6902,58.551 98.84,58.8992 98.9708,59.2551 99.082,59.6175 99.1735,59.9854 99.245,60.3577 99.2962,60.7334 99.3269,61.1112"/>
    <polyline points="90.3117,87.9585 90.62,87.9805 90.9981,88.0257 91.3736,88.0889 91.7457,88.1698 92.1135,88.2684 92.4761,88.3843 92.8329,88.5174 93.1829,88.6672 93.5254,88.8336 93.8596,89.0161 94.1847,89.2143 94.5001,89.4277 94.8049,89.6559 95.0985,89.8983 95.3802,90.1544 95.6495,90.4237 95.9056,90.7054 96.148,90.999 96.3762,91.3038 96.5896,91.6192 96.7878,91.9443 96.9703,92.2785 97.1367,92.621 97.2865,92.971 97.4196,93.3278 97.5355,93.6904 97.6341,94.0582 97.715,94.4303 97.7782,94.8058 97.8234,95.1839 97.8505,95.5636 97.8596,95.9443"/>
    <polyline points="97.8596,95.9443 97.8505,96.325 97.8234,96.7047 97.7782,97.0828 97.715,97.4583 97.6341,97.8304 97.5355,98.1982 97.4196,98.5608 97.2865,98.9176 97.1367,99.2676 96.9703,99.6101 96.7878,99.9443 96.5896,100.2694 96.3762,100.5848 96.148,100.8896 95.9056,101.1832 95.6495,101.4649 95.3802,101.7342 95.0985,101.9903 94.8049,102.2327 94.5001,102.4609 94.1847,102.6743 93.8596,102.8725 93.5254,103.055 93.1829,103.2214 92.8329,103.3712 92.4761,103.5043 92.1135,103.6202 91.7457,103.7188 91.3736,103.7997 90.9981,103.8629 90.62,103.9081 90.3612,103.9266"/>
    <polygon points="92.0,96.0 91.9964,96.3785 91.9857,96.7568 91.9678,97.1349 91.9427,97.5126 91.9105,97.8897 91.8712,98.2662 91.8248,98.6418 91.7712,99.0165 91.7106,99.3901 91.6429,99.7625 91.5682,100.1335 91.4865,100.5031 91.3977,100.8711 91.3021,101.2373 91.1995,101.6016 91.0901,101.964 90.9738,102.3242 90.8507,102.6821 90.7209,103.0376 90.5844,103.3906 90.4412,103.741 90.2914,104.0886 90.135,104.4333 89.9722,104.775 89.8029,105.1135 89.6273,105.4488 89.4453,105.7807 89.2571,106.1091 89.0627,106.4338 88.8622,106.7549 88.6556,107.072 88.4431,107.3852 88.2247,107.6944 88.0005,107.9993 87.7706,108.3 87.535,108.5962 87.2938,108.8879 87.0472,109.1751 86.7952,109.4575 86.5378,109.735 86.2753,110.0077 86.0077,110.2753 85.735,110.5378 85.4575,110.7952 85.1751,111.0472 84.8879,111.2938 84.5962,111.535 84.3,111.7706 83.9993,112.0005 83.6944,112.2247 83.3852,112.4431 83.072,112.6556 82.7549,112.8622 82.4338,113.0627 82.1091,113.2571 81.7807,113.4453 81.4488,113.6273 81.1135,113.8029 80.775,113.9722 80.4333,114.135 80.0886,114.2914 79.741,114.4412 79.3906,114.5844 79.0376,114.7209 78.6821,114.8507 78.3242,114.9738 77.964,115.0901 77.6016,115.1995 77.2373,115.3021 76.8711,115.3977 76.5031,115.4865 76.1335,115.5682 75.7625,115.6429 75.3901,115.7106 75.0165,115.7712 74.6418,115.8248 74.2662,115.8712 73.8897,115.9105 73.5126,115.9427 73.1349,115.9678 72.7568,115.9857 72.3785,115.9964 72.0,116.0 71.6215,115.9964 71.2432,115.9857 70.8651,115.9678 70.4874,115.9427 70.1103,115.9105 69.7338,115.8712 69.3582,115.8248 68.9835,115.7712 68.6099,115.7106 68.2375,115.6429 67.8665,115.5682 67.4969,115.4865 67.1289,115.3977 66.7627,115.3021 66.3984,115.1995 66.036,115.0901 65.6758,114.9738 65.3179,114.8507 64.9624,114.7209 64.6094,114.5844 64.259,114.4412 63.9114,114.2914 63.5667,114.135 63.225,113.9722 62.8865,113.8029 62.5512,113.6273 62.2193,113.4453 61.8909,113.2571 61.5662,113.0627 61.2451,112.8622 60.928,112.6556 60.6148,112.4431 60.3056,112.2247 60.0007,112.0005 59.7,111.7706 59.4038,111.535 59.1121,111.2938 58.8249,111.0472 58.5425,110.7952 58.265,110.5378 57.9923,110.2753 57.7247,110.0077 57.4622,109.735 57.2048,109.4575 56.9528,109.1751 56.7062,108.8879 56.465,108.5962 56.2294,108.3 55.9995,107.9993 55.7753,107.6944 55.5569,107.3852 55.3444,107.072 55.1378,106.7549 54.9373,106.4338 54.7429,106.1091 54.5547,105.7807 54.3727,105.4488 54.1971,105.1135 54.0278,104.775 53.865,104.4333 53.7086,104.0886 53.5588,103.741 53.4156,103.3906 53.2791,103.0376 53.1493,102.6821 53.0262,102.3242 52.9099,101.964 52.8005,101.6016 52.6979,101.2373 52.6023,100.8711 52.5135,100.5031 52.4318,100.1335 52.3571,99.7625 52.2894,99.3901 52.2288,99.0165 52.1752,98.6418 52.1288,98.2662 52.0895,97.8897 52.0573,97.5126 52.0322,97.1349 52.0143,96.7568 52.0036,96.3785 52.0,96.0 52.0036,95.6215 52.0143,95.2432 52.0322,94.8651 52.0573,94.4874 52.0895,94.1103 52.1288,93.7338 52.1752,93.3582 52.2288,92.9835 52.2894,92.6099 52.3571,92.2375 52.4318,91.8665 52.5135,91.4969 52.6023,91.1289 52.6979,90.7627 52.8005,90.3984 52.9099,90.036 53.0262,89.6758 53.1493,89.3179 53.2791,88.9624 53.4156,88.6094 53.5588,88.259 53.7086,87.9114 53.865,87.5667 54.0278,87.225 54.1971,86.8865 54.3727,86.5512 54.5547,86.2193 54.7429,85.8909 54.9373,85.5662 55.1378,85.2451 55.3444,84.928 55.5569,84.6148 55.7753,84.3056 55.9995,84.0007 56.2294,83.7 56.465,83.4038 56.7062,83.1121 56.9528,82.8249 57.2048,82.5425 57.4622,82.265 57.7247,81.9923 57.9923,81.7247 58.265,81.4622 58.5425,81.2048 58.8249,80.9528 59.1121,80.7062 59.4038,80.465 59.7,80.2294 60.0007,79.9995 60.3056,79.7753 60.6148,79.5569 60.928,79.3444 61.2451,79.1378 61.5662,78.9373 61.8909,78.7429 62.2193,78.5547 62.5512,78.3727 62.8865,78.1971 63.225,78.0278 63.5667,77.865 63.9114,77.7086 64.259,77.5588 64.6094,77.4156 64.9624,77.2791 65.3179,77.1493 65.6758,77.0262 66.036,76.9099 66.3984,76.8005 66.7627,76.6979 67.1289,76.6023 67.4969,76.5135 67.8665,76.4318 68.2375,76.3571 68.6099,76.2894 68.9835,76.2288 69.3582,76.1752 69.7338,76.1288 70.1103,76.0895 70.4874,76.0573 70.8651,76.0322 71.2432,76.0143 71.6215,76.0036 72.0,76.0 72.3785,76.0036 72.7568,76.0143 73.1349,76.0322 73.5126,76.0573 73.8897,76.0895 74.2662,76.1288 74.6418,76.1752 75.0165,76.2288 75.3901,76.2894 75.7625,76.3571 76.1335,76.4318 76.5031,76.5135 76.8711,76.6023 77.2373,76.6979 77.6016,76.8005 77.964,76.9099 78.3242,77.0262 78.6821,77.1493 79.0376,77.2791 79.3906,77.4156 79.741,77.5588 80.0886,77.7086 80.4333,77.865 80.775,78.0278 81.1135,78.1971 81.4488,78.3727 81.7807,78.5547 82.1091,78.7429 82.4338,78.9373 82.7549,79.1378 83.072,79.3444 83.3852,79.5569 83.6944,79.7753 83.9993,79.9995 84.3,80.2294 84.5962,80.465 84.8879,80.7062 85.1751,80.9528 85.4575,81.2048 85.735,81.4622 86.0077,81.7247 86.2753,81.9923 86.5378,82.265 86.7952,82.5425 87.0472,82.8249 87.2938,83.1121 87.535,83.4038 87.7706,83.7 88.0005,84.0007 88.2247,84.3056 88.4431,84.6148 88.6556,84.928 88.8622,85.2451 89.0627,85.5662 89.2571,85.8909 89.4453,86.2193 89.6273,86.5512 89.8029,86.8865 89.9722,87.225 90.135,87.5667 90.2914,87.9114 90.4412,88.259 90.5844,88.6094 90.7209,88.9624 90.8507,89.3179 90.9738,89.6758 91.0901,90.036 91.1995,90.3984 91.3021,90.7627 91.3977,91.1289 91.4865,91.4969 91.5682,91.8665 91.6429,92.2375 91.7106,92.6099 91.7712,92.9835 91.8248,93.3582 91.8712,93.7338 91.9105,94.1103 91.9427,94.4874 91.9678,94.8651 91.9857,95.2432 91.9964,95.6215"/>
    <line x1="97.8533" x2="124.7717" y1="96.2092" y2="96.427"/>
    <line x1="124.7717" x2="97.8533" y1="96.427" y2="96.2092"/>
    <line x1="97.8264" x2="124.7388" y1="95.2267" y2="94.421"/>
    <line x1="124.7388" x2="97.8264" y1="94.421" y2="95.2267"/>
    <line x1="97.7042" x2="125.9411" y1="97.5079" y2="99.1645"/>
    <line x1="125.9411" x2="97.7042" y1="99.1645" y2="97.5079"/>
    <line x1="97.4743" x2="128.6985" y1="98.3897" y2="101.3189"/>
    <line x1="128.6985" x2="97.4743" y1="101.3189" y2="98.3897"/>
    <polyline points="77.7311,115.1604 77.8709,115.4978 77.9949,115.8704 78.092,116.2508 78.1617,116.6372 78.2037,117.0275 78.2177,117.4199"/>
    <polyline points="78.2177,117.4199 78.2037,117.8123 78.1617,118.2026 78.092,118.589 77.9949,118.9694 77.8709,119.342 77.7207,119.7047 77.5449,120.0558 77.3446,120.3934 77.1207,120.7159 76.8743,121.0216 76.6068,121.309 76.3194,121.5765 76.0137,121.8229 75.6912,122.0468 75.3536,122.2471 75.0025,122.4229 74.6398,122.5731 74.2672,122.6971 73.8868,122.7942 73.5004,122.8639 73.1101,122.9059 72.7177,122.9199 72.3253,122.9059 71.935,122.8639 71.5486,122.7942 71.1682,122.6971 70.7956,122.5731 70.4329,122.4229 70.0818,122.2471 69.7442,122.0468 69.4217,121.8229 69.116,121.5765 68.8286,121.309 68.5611,121.0216 68.3147,120.7159 68.0908,120.3934 67.8905,120.0558 67.7147,119.7047 67.5645,119.342 67.4405,118.9694 67.3434,118.589 67.2737,118.2026 67.2317,117.8123 67.2177,117.4199 67.2317,117.0275 67.2737,116.6372 67.3434,116.2508 67.4405,115.8704 67.5634,115.5012"/>
    <line x1="61.8337" x2="30.0981" y1="113.2228" y2="166.9868"/>
    <line x1="30.0981" x2="61.8337" y1="166.9868" y2="113.2228"/>
    <line x1="61.7228" x2="29.5066" y1="113.1564" y2="166.9369"/>
    <line x1="29.5066" x2="61.7228" y1="166.9369" y2="113.1564"/>
    <line x1="55.7459" x2="49.1544" y1="107.6528" y2="112.3784"/>
    <line x1="49.1544" x2="55.7459" y1="112.3784" y2="107.6528"/>
    <line x1="55.7027" x2="49.1577" y1="107.5917" y2="112.247"/>
    <line x1="49.1577" x2="55.7027" y1="112.247" y2="107.5917"/>
    <line x1="53.6921" x2="47.0216" y1="104.0503" y2="106.9834"/>
    <line x1="47.0216" x2="53.6921" y1="106.9834" y2="104.0503"/>
    <line x1="53.1841" x2="45.2439" y1="102.7774" y2="105.6374"/>
    <line x1="45.2439" x2="53.1841" y1="105.6374" y2="102.7774"/>
    <line x1="53.1413" x2="45.0269" y1="102.6589" y2="105.524"/>
    <line x1="45.0269" x2="53.1413" y1="105.524" y2="102.6589"/>
    <polygon points="49.1583,112.2233 49.1487,112.6032 49.1198,112.9821 49.0718,113.359 49.0048,113.733 48.9189,114.1032 48.8143,114.4685 48.6914,114.8281 48.5505,115.181 48.3918,115.5263 48.2159,115.8631 48.0231,116.1905 47.814,116.5078 47.5891,116.8141 47.349,117.1086 47.0942,117.3906 46.8256,117.6592 46.5436,117.914 46.2491,118.1541 45.9428,118.379 45.6255,118.5881 45.2981,118.7809 44.9613,118.9568 44.616,119.1155 44.2631,119.2564 43.9035,119.3793 43.5382,119.4839 43.168,119.5698 42.794,119.6368 42.4171,119.6848 42.0382,119.7137 41.6583,119.7233 41.2784,119.7137 40.8995,119.6848 40.5226,119.6368 40.1486,119.5698 39.7784,119.4839 39.4131,119.3793 39.0535,119.2564 38.7006,119.1155 38.3553,118.9568 38.0185,118.7809 37.6911,118.5881 37.3738,118.379 37.0675,118.1541 36.773,117.914 36.491,117.6592 36.2224,117.3906 35.9676,117.1086 35.7275,116.8141 35.5026,116.5078 35.2935,116.1905 35.1007,115.8631 34.9248,115.5263 34.7661,115.181 34.6252,114.8281 34.5023,114.4685 34.3977,114.1032 34.3118,113.733 34.2448,113.359 34.1968,112.9821 34.1679,112.6032 34.1583,112.2233 34.1679,111.8434 34.1968,111.4645 34.2448,111.0876 34.3118,110.7136 34.3977,110.3434 34.5023,109.9781 34.6252,109.6185 34.7661,109.2656 34.9248,108.9203 35.1007,108.5835 35.2935,108.2561 35.5026,107.9388 35.7275,107.6325 35.9676,107.338 36.2224,107.056 36.491,106.7874 36.773,106.5326 37.0675,106.2925 37.3738,106.0676 37.6911,105.8585 38.0185,105.6657 38.3553,105.4898 38.7006,105.3311 39.0535,105.1902 39.4131,105.0673 39.7784,104.9627 40.1486,104.8768 40.5226,104.8098 40.8995,104.7618 41.2784,104.7329 41.6583,104.7233 42.0382,104.7329 42.4171,104.7618 42.794,104.8098 43.168,104.8768 43.5382,104.9627 43.9035,105.0673 44.2631,105.1902 44.616,105.3311 44.9613,105.4898 45.2981,105.6657 45.6255,105.8585 45.9428,106.0676 46.2491,106.2925 46.5436,106.5326 46.8256,106.7874 47.0942,107.056 47.349,107.338 47.5891,107.6325 47.814,107.9388 48.0231,108.2561 48.2159,108.5835 48.3918,108.9203 48.5505,109.2656 48.6914,109.6185 48.8143,109.9781 48.9189,110.3434 49.0048,110.7136 49.0718,111.0876 49.1198,111.4645 49.1487,111.8434"/>
    <polygon points="33.9317,171.4336 33.9146,171.8258 33.8633,172.215 33.7784,172.5983 33.6603,172.9727 33.5101,173.3354 33.3288,173.6836 33.1179,174.0147 32.8789,174.3261 32.6137,174.6156 32.3242,174.8808 32.0128,175.1198 31.6817,175.3307 31.3335,175.512 30.9708,175.6622 30.5964,175.7803 30.2131,175.8652 29.8239,175.9165 29.4317,175.9336 29.0395,175.9165 28.6503,175.8652 28.267,175.7803 27.8926,175.6622 27.5299,175.512 27.1817,175.3307 26.8506,175.1198 26.5392,174.8808 26.2497,174.6156 25.9845,174.3261 25.7455,174.0147 25.5346,173.6836 25.3533,173.3354 25.2031,172.9727 25.085,172.5983 25.0001,172.215 24.9488,171.8258 24.9317,171.4336 24.9488,171.0414 25.0001,170.6522 25.085,170.2689 25.2031,169.8945 25.3533,169.5318 25.5346,169.1836 25.7455,168.8525 25.9845,168.5411 26.2497,168.2516 26.5392,167.9864 26.8506,167.7474 27.1817,167.5365 27.5299,167.3552 27.8926,167.205 28.267,167.0869 28.6503,167.002 29.0395,166.9507 29.4317,166.9336 29.8239,166.9507 30.2131,167.002 30.5964,167.0869 30.9708,167.205 31.3335,167.3552 31.6817,167.5365 32.0128,167.7474 32.3242,167.9864 32.6137,168.2516 32.8789,168.5411 33.1179,168.8525 33.3288,169.1836 33.5101,169.5318 33.6603,169.8945 33.7784,170.2689 33.8633,170.6522 33.9146,171.0414"/>
    <polygon points="137.6749,95.3115 137.6639,95.6894 137.6309,96.0661 137.5762,96.4402 137.4997,96.8105 137.4018,97.1757 137.2829,97.5346 137.1433,97.886 136.9835,98.2287 136.8041,98.5615 136.6056,98.8833 136.3887,99.193 136.1542,99.4896 135.9028,99.7721 135.6355,100.0394 135.353,100.2908 135.0564,100.5253 134.7467,100.7422 134.4249,100.9407 134.0921,101.1201 133.7494,101.2799 133.398,101.4195 133.0391,101.5384 132.6739,101.6363 132.3036,101.7128 131.9295,101.7675 131.5528,101.8005 131.1749,101.8115 130.797,101.8005 130.4203,101.7675 130.0462,101.7128 129.6759,101.6363 129.3107,101.5384 128.9518,101.4195 128.6004,101.2799 128.2577,101.1201 127.9249,100.9407 127.6031,100.7422 127.2934,100.5253 126.9968,100.2908 126.7143,100.0394 126.447,99.7721 126.1956,99.4896 125.9611,99.193 125.7442,98.8833 125.5457,98.5615 125.3663,98.2287 125.2065,97.886 125.0669,97.5346 124.948,97.1757 124.8501,96.8105 124.7736,96.4402 124.7189,96.0661 124.6859,95.6894 124.6749,95.3115 124.6859,94.9336 124.7189,94.5569 124.7736,94.1828 124.8501,93.8125 124.948,93.4473 125.0669,93.0884 125.2065,92.737 125.3663,92.3943 125.5457,92.0615 125.7442,91.7397 125.9611,91.43 126.1956,91.1334 126.447,90.8509 126.7143,90.5836 126.9968,90.3322 127.2934,90.0977 127.6031,89.8808 127.9249,89.6823 128.2577,89.5029 128.6004,89.3431 128.9518,89.2035 129.3107,89.0846 129.6759,88.9867 130.0462,88.9102 130.4203,88.8555 130.797,88.8225 131.1749,88.8115 131.5528,88.8225 131.9295,88.8555 132.3036,88.9102 132.6739,88.9867 133.0391,89.0846 133.398,89.2035 133.7494,89.3431 134.0921,89.5029 134.4249,89.6823 134.7467,89.8808 135.0564,90.0977 135.353,90.3322 135.6355,90.5836 135.9028,90.8509 136.1542,91.1334 136.3887,91.43 136.6056,91.7397 136.8041,92.0615 136.9835,92.3943 137.1433,92.737 137.2829,93.0884 137.4018,93.4473 137.4997,93.8125 137.5762,94.1828 137.6309,94.5569 137.6639,94.9336"/>
  </g>
</svg>
